<?xml version="1.0" encoding="UTF-8"?>
<svg xmlns="http://www.w3.org/2000/svg"
     xmlns:xlink="http://www.w3.org/1999/xlink"
     xmlns:gadfly="http://www.gadflyjl.org/ns"
     version="1.2"
     width="120mm" height="60mm" viewBox="0 0 120 60"
     stroke="none"
     fill="#000000"
     stroke-width="0.3"
     font-size="3.88"
>
<defs>
  <marker id="arrow" markerWidth="15" markerHeight="7" refX="5" refY="3.5" orient="auto" markerUnits="strokeWidth">
    <path d="M0,0 L15,3.5 L0,7 z" stroke="context-stroke" fill="context-stroke"/>
  </marker>
</defs>
<g class="plotroot xscalable yscalable" id="img-4b8d6fae-1">
  <g font-size="3.88" font-family="'PT Sans','Helvetica Neue','Helvetica',sans-serif" fill="#564A55" stroke="#000000" stroke-opacity="0.000" id="img-4b8d6fae-2">
    <g transform="translate(60.75,48.39)">
      <g class="primitive">
        <text text-anchor="middle" dy="0.6em">x</text>
      </g>
    </g>
  </g>
  <g class="guide xlabels" font-size="2.82" font-family="'PT Sans Caption','Helvetica Neue','Helvetica',sans-serif" fill="#6C606B" id="img-4b8d6fae-3">
    <g transform="translate(16.48,41.72)">
      <g class="primitive">
        <text text-anchor="middle" dy="0.6em">0</text>
      </g>
    </g>
    <g transform="translate(38.62,41.72)">
      <g class="primitive">
        <text text-anchor="middle" dy="0.6em">2</text>
      </g>
    </g>
    <g transform="translate(60.75,41.72)">
      <g class="primitive">
        <text text-anchor="middle" dy="0.6em">4</text>
      </g>
    </g>
    <g transform="translate(82.89,41.72)">
      <g class="primitive">
        <text text-anchor="middle" dy="0.6em">6</text>
      </g>
    </g>
    <g transform="translate(105.02,41.72)">
      <g class="primitive">
        <text text-anchor="middle" dy="0.6em">8</text>
      </g>
    </g>
  </g>
  <g class="guide colorkey" id="img-4b8d6fae-4">
    <g font-size="2.82" font-family="'PT Sans','Helvetica Neue','Helvetica',sans-serif" fill="#4C404B" id="img-4b8d6fae-5">
      <g transform="translate(111.34,16.81)">
        <g class="primitive">
          <text dy="0.35em">2</text>
        </g>
      </g>
      <g transform="translate(111.34,37.3)">
        <g class="primitive">
          <text dy="0.35em">-1</text>
        </g>
      </g>
      <g transform="translate(111.34,30.47)">
        <g class="primitive">
          <text dy="0.35em">0</text>
        </g>
      </g>
      <g transform="translate(111.34,44.12)">
        <g class="primitive">
          <text dy="0.35em">-2</text>
        </g>
      </g>
      <g transform="translate(111.34,23.64)">
        <g class="primitive">
          <text dy="0.35em">1</text>
        </g>
      </g>
    </g>
    <g shape-rendering="crispEdges" stroke="#000000" stroke-opacity="0.000" id="img-4b8d6fae-6">
      <g transform="translate(109.68,43.78)" fill="#004D84">
        <path d="M-0.66,-0.34 L 0.66 -0.34 0.66 0.34 -0.66 0.34 z" class="primitive"/>
      </g>
      <g transform="translate(109.68,43.1)" fill="#005B8D">
        <path d="M-0.66,-0.34 L 0.66 -0.34 0.66 0.34 -0.66 0.34 z" class="primitive"/>
      </g>
      <g transform="translate(109.68,42.42)" fill="#006995">
        <path d="M-0.66,-0.34 L 0.66 -0.34 0.66 0.34 -0.66 0.34 z" class="primitive"/>
      </g>
      <g transform="translate(109.68,41.74)" fill="#00769D">
        <path d="M-0.66,-0.34 L 0.66 -0.34 0.66 0.34 -0.66 0.34 z" class="primitive"/>
      </g>
      <g transform="translate(109.68,41.05)" fill="#0083A3">
        <path d="M-0.66,-0.34 L 0.66 -0.34 0.66 0.34 -0.66 0.34 z" class="primitive"/>
      </g>
      <g transform="translate(109.68,40.37)" fill="#278FA9">
        <path d="M-0.66,-0.34 L 0.66 -0.34 0.66 0.34 -0.66 0.34 z" class="primitive"/>
      </g>
      <g transform="translate(109.68,39.69)" fill="#409BAF">
        <path d="M-0.66,-0.34 L 0.66 -0.34 0.66 0.34 -0.66 0.34 z" class="primitive"/>
      </g>
      <g transform="translate(109.68,39)" fill="#55A7B5">
        <path d="M-0.66,-0.34 L 0.66 -0.34 0.66 0.34 -0.66 0.34 z" class="primitive"/>
      </g>
      <g transform="translate(109.68,38.32)" fill="#69B2BA">
        <path d="M-0.66,-0.34 L 0.66 -0.34 0.66 0.34 -0.66 0.34 z" class="primitive"/>
      </g>
      <g transform="translate(109.68,37.64)" fill="#7BBCC0">
        <path d="M-0.66,-0.34 L 0.66 -0.34 0.66 0.34 -0.66 0.34 z" class="primitive"/>
      </g>
      <g transform="translate(109.68,36.96)" fill="#8DC6C5">
        <path d="M-0.66,-0.34 L 0.66 -0.34 0.66 0.34 -0.66 0.34 z" class="primitive"/>
      </g>
      <g transform="translate(109.68,36.27)" fill="#9ED0CB">
        <path d="M-0.66,-0.34 L 0.66 -0.34 0.66 0.34 -0.66 0.34 z" class="primitive"/>
      </g>
      <g transform="translate(109.68,35.59)" fill="#A5CFC7">
        <path d="M-0.66,-0.34 L 0.66 -0.34 0.66 0.34 -0.66 0.34 z" class="primitive"/>
      </g>
      <g transform="translate(109.68,34.91)" fill="#ABCEC4">
        <path d="M-0.66,-0.34 L 0.66 -0.34 0.66 0.34 -0.66 0.34 z" class="primitive"/>
      </g>
      <g transform="translate(109.68,34.22)" fill="#B1CCC2">
        <path d="M-0.66,-0.34 L 0.66 -0.34 0.66 0.34 -0.66 0.34 z" class="primitive"/>
      </g>
      <g transform="translate(109.68,33.54)" fill="#B5CCC1">
        <path d="M-0.66,-0.34 L 0.66 -0.34 0.66 0.34 -0.66 0.34 z" class="primitive"/>
      </g>
      <g transform="translate(109.68,32.86)" fill="#B7CBBF">
        <path d="M-0.66,-0.34 L 0.66 -0.34 0.66 0.34 -0.66 0.34 z" class="primitive"/>
      </g>
      <g transform="translate(109.68,32.18)" fill="#B9CBBD">
        <path d="M-0.66,-0.34 L 0.66 -0.34 0.66 0.34 -0.66 0.34 z" class="primitive"/>
      </g>
      <g transform="translate(109.68,31.49)" fill="#BBCBBB">
        <path d="M-0.66,-0.34 L 0.66 -0.34 0.66 0.34 -0.66 0.34 z" class="primitive"/>
      </g>
      <g transform="translate(109.68,30.81)" fill="#BDCABA">
        <path d="M-0.66,-0.34 L 0.66 -0.34 0.66 0.34 -0.66 0.34 z" class="primitive"/>
      </g>
      <g transform="translate(109.68,30.13)" fill="#BFCAB8">
        <path d="M-0.66,-0.34 L 0.66 -0.34 0.66 0.34 -0.66 0.34 z" class="primitive"/>
      </g>
      <g transform="translate(109.68,29.44)" fill="#C2C9B7">
        <path d="M-0.66,-0.34 L 0.66 -0.34 0.66 0.34 -0.66 0.34 z" class="primitive"/>
      </g>
      <g transform="translate(109.68,28.76)" fill="#C4C9B6">
        <path d="M-0.66,-0.34 L 0.66 -0.34 0.66 0.34 -0.66 0.34 z" class="primitive"/>
      </g>
      <g transform="translate(109.68,28.08)" fill="#C6C8B5">
        <path d="M-0.66,-0.34 L 0.66 -0.34 0.66 0.34 -0.66 0.34 z" class="primitive"/>
      </g>
      <g transform="translate(109.68,27.4)" fill="#C9C7B4">
        <path d="M-0.66,-0.34 L 0.66 -0.34 0.66 0.34 -0.66 0.34 z" class="primitive"/>
      </g>
      <g transform="translate(109.68,26.71)" fill="#CCC7B2">
        <path d="M-0.66,-0.34 L 0.66 -0.34 0.66 0.34 -0.66 0.34 z" class="primitive"/>
      </g>
      <g transform="translate(109.68,26.03)" fill="#CFC6AE">
        <path d="M-0.66,-0.34 L 0.66 -0.34 0.66 0.34 -0.66 0.34 z" class="primitive"/>
      </g>
      <g transform="translate(109.68,25.35)" fill="#D4C5AA">
        <path d="M-0.66,-0.34 L 0.66 -0.34 0.66 0.34 -0.66 0.34 z" class="primitive"/>
      </g>
      <g transform="translate(109.68,24.67)" fill="#D8C3A6">
        <path d="M-0.66,-0.34 L 0.66 -0.34 0.66 0.34 -0.66 0.34 z" class="primitive"/>
      </g>
      <g transform="translate(109.68,23.98)" fill="#D3B79A">
        <path d="M-0.66,-0.34 L 0.66 -0.34 0.66 0.34 -0.66 0.34 z" class="primitive"/>
      </g>
      <g transform="translate(109.68,23.3)" fill="#CDAB8E">
        <path d="M-0.66,-0.34 L 0.66 -0.34 0.66 0.34 -0.66 0.34 z" class="primitive"/>
      </g>
      <g transform="translate(109.68,22.62)" fill="#C89E82">
        <path d="M-0.66,-0.34 L 0.66 -0.34 0.66 0.34 -0.66 0.34 z" class="primitive"/>
      </g>
      <g transform="translate(109.68,21.93)" fill="#C19177">
        <path d="M-0.66,-0.34 L 0.66 -0.34 0.66 0.34 -0.66 0.34 z" class="primitive"/>
      </g>
      <g transform="translate(109.68,21.25)" fill="#BA836C">
        <path d="M-0.66,-0.34 L 0.66 -0.34 0.66 0.34 -0.66 0.34 z" class="primitive"/>
      </g>
      <g transform="translate(109.68,20.57)" fill="#B27563">
        <path d="M-0.66,-0.34 L 0.66 -0.34 0.66 0.34 -0.66 0.34 z" class="primitive"/>
      </g>
      <g transform="translate(109.68,19.89)" fill="#AA665A">
        <path d="M-0.66,-0.34 L 0.66 -0.34 0.66 0.34 -0.66 0.34 z" class="primitive"/>
      </g>
      <g transform="translate(109.68,19.2)" fill="#A05752">
        <path d="M-0.66,-0.34 L 0.66 -0.34 0.66 0.34 -0.66 0.34 z" class="primitive"/>
      </g>
      <g transform="translate(109.68,18.52)" fill="#96484A">
        <path d="M-0.66,-0.34 L 0.66 -0.34 0.66 0.34 -0.66 0.34 z" class="primitive"/>
      </g>
      <g transform="translate(109.68,17.84)" fill="#8B3844">
        <path d="M-0.66,-0.34 L 0.66 -0.34 0.66 0.34 -0.66 0.34 z" class="primitive"/>
      </g>
      <g transform="translate(109.68,17.15)" fill="#7E273E">
        <path d="M-0.66,-0.34 L 0.66 -0.34 0.66 0.34 -0.66 0.34 z" class="primitive"/>
      </g>
      <g stroke="#FFFFFF" stroke-width="0.2" id="img-4b8d6fae-7">
        <g transform="translate(109.68,16.81)">
          <path fill="none" d="M-0.66,0 L 0.66 0" class="primitive"/>
        </g>
        <g transform="translate(109.68,37.3)">
          <path fill="none" d="M-0.66,0 L 0.66 0" class="primitive"/>
        </g>
        <g transform="translate(109.68,30.47)">
          <path fill="none" d="M-0.66,0 L 0.66 0" class="primitive"/>
        </g>
        <g transform="translate(109.68,44.12)">
          <path fill="none" d="M-0.66,0 L 0.66 0" class="primitive"/>
        </g>
        <g transform="translate(109.68,23.64)">
          <path fill="none" d="M-0.66,0 L 0.66 0" class="primitive"/>
        </g>
      </g>
    </g>
    <g fill="#362A35" font-size="3.88" font-family="'PT Sans','Helvetica Neue','Helvetica',sans-serif" stroke="#000000" stroke-opacity="0.000" id="img-4b8d6fae-8">
      <g transform="translate(109.03,12.81)">
        <g class="primitive">
          <text dy="-0em">f(x,y)</text>
        </g>
      </g>
    </g>
  </g>
  <g clip-path="url(#img-4b8d6fae-9)">
    <g id="img-4b8d6fae-10">
      <g pointer-events="visible" fill="#000000" fill-opacity="0.000" stroke="#000000" stroke-opacity="0.000" class="guide background" id="img-4b8d6fae-11">
        <g transform="translate(60.75,22.86)" id="img-4b8d6fae-12">
          <path d="M-46.27,-17.86 L 46.27 -17.86 46.27 17.86 -46.27 17.86 z" class="primitive"/>
        </g>
      </g>
      <g class="guide ygridlines xfixed" stroke-dasharray="0.5,0.5" stroke-width="0.2" stroke="#D0D0E0" id="img-4b8d6fae-13">
        <g transform="translate(60.75,38.72)" id="img-4b8d6fae-14">
          <path fill="none" d="M-46.27,0 L 46.27 0" class="primitive"/>
        </g>
        <g transform="translate(60.75,30.79)" id="img-4b8d6fae-15">
          <path fill="none" d="M-46.27,0 L 46.27 0" class="primitive"/>
        </g>
        <g transform="translate(60.75,22.86)" id="img-4b8d6fae-16">
          <path fill="none" d="M-46.27,0 L 46.27 0" class="primitive"/>
        </g>
        <g transform="translate(60.75,14.93)" id="img-4b8d6fae-17">
          <path fill="none" d="M-46.27,0 L 46.27 0" class="primitive"/>
        </g>
        <g transform="translate(60.75,7)" id="img-4b8d6fae-18">
          <path fill="none" d="M-46.27,0 L 46.27 0" class="primitive"/>
        </g>
      </g>
      <g class="guide xgridlines yfixed" stroke-dasharray="0.5,0.5" stroke-width="0.2" stroke="#D0D0E0" id="img-4b8d6fae-19">
        <g transform="translate(16.48,22.86)" id="img-4b8d6fae-20">
          <path fill="none" d="M0,-17.86 L 0 17.86" class="primitive"/>
        </g>
        <g transform="translate(38.62,22.86)" id="img-4b8d6fae-21">
          <path fill="none" d="M0,-17.86 L 0 17.86" class="primitive"/>
        </g>
        <g transform="translate(60.75,22.86)" id="img-4b8d6fae-22">
          <path fill="none" d="M0,-17.86 L 0 17.86" class="primitive"/>
        </g>
        <g transform="translate(82.89,22.86)" id="img-4b8d6fae-23">
          <path fill="none" d="M0,-17.86 L 0 17.86" class="primitive"/>
        </g>
        <g transform="translate(105.02,22.86)" id="img-4b8d6fae-24">
          <path fill="none" d="M0,-17.86 L 0 17.86" class="primitive"/>
        </g>
      </g>
      <g class="plotpanel" id="img-4b8d6fae-25">
        <metadata>
          <boundingbox value="14.479166666666671mm 5.0mm 92.54583333333335mm 35.715mm"/>
          <unitbox value="-0.18069737894687307 8.50449314204635 8.361394757893747 -9.0089862840927"/>
        </metadata>
        <g stroke-width="0.3" fill="#000000" fill-opacity="0.000" class="geometry" id="img-4b8d6fae-26">
          <g transform="translate(68.52,26.26)" id="img-4b8d6fae-27" class="color_" stroke="#006E98" stroke-dasharray="none">
            <path fill="none" d="M-7.88,0.08 L -7.85 0.25 -7.79 0.42 -7.7 0.58 -7.7 0.59 -7.58 0.75 -7.43 0.92 -7.24 1.09 -7.23 1.09 -7.02 1.25 -6.77 1.41 -6.76 1.42 -6.45 1.59 -6.3 1.66 -6.1 1.75 -5.83 1.87 -5.7 1.92 -5.37 2.04 -5.23 2.09 -4.9 2.19 -4.68 2.26 -4.43 2.32 -4.02 2.42 -3.97 2.44 -3.5 2.53 -3.18 2.59 -3.03 2.62 -2.57 2.69 -2.1 2.74 -1.96 2.76 -1.63 2.79 -1.17 2.82 -0.7 2.85 -0.23 2.86 0.23 2.86 0.7 2.86 1.17 2.84 1.63 2.81 2.1 2.77 2.2 2.76 2.57 2.72 3.03 2.65 3.41 2.59 3.5 2.58 3.97 2.48 4.25 2.42 4.43 2.38 4.9 2.26 4.91 2.26 5.37 2.12 5.46 2.09 5.83 1.96 5.93 1.92 6.3 1.77 6.34 1.75 6.68 1.59 6.77 1.54 6.99 1.42 7.23 1.26 7.25 1.25 7.47 1.09 7.66 0.92 7.7 0.88 7.81 0.75 7.93 0.58 8.02 0.42 8.08 0.25 8.12 0.08 8.12 -0.08 8.08 -0.25 8.02 -0.42 7.93 -0.59 7.81 -0.75 7.7 -0.88 7.66 -0.92 7.47 -1.09 7.25 -1.25 7.23 -1.27 6.99 -1.42 6.77 -1.54 6.68 -1.59 6.34 -1.76 6.3 -1.77 5.93 -1.92 5.83 -1.96 5.46 -2.09 5.37 -2.12 4.91 -2.26 4.9 -2.26 4.43 -2.38 4.25 -2.42 3.97 -2.49 3.5 -2.58 3.41 -2.59 3.03 -2.65 2.57 -2.72 2.2 -2.76 2.1 -2.77 1.63 -2.81 1.17 -2.84 0.7 -2.86 0.23 -2.87 -0.23 -2.86 -0.7 -2.85 -1.17 -2.83 -1.63 -2.79 -1.96 -2.76 -2.1 -2.75 -2.57 -2.69 -3.03 -2.62 -3.18 -2.59 -3.5 -2.53 -3.97 -2.44 -4.02 -2.42 -4.43 -2.32 -4.68 -2.26 -4.9 -2.19 -5.23 -2.09 -5.37 -2.04 -5.7 -1.92 -5.83 -1.87 -6.1 -1.76 -6.3 -1.66 -6.45 -1.59 -6.76 -1.42 -6.77 -1.41 -7.02 -1.25 -7.23 -1.09 -7.24 -1.09 -7.43 -0.92 -7.58 -0.75 -7.7 -0.59 -7.7 -0.59 -7.79 -0.42 -7.85 -0.25 -7.88 -0.08 -7.88 0.08" class="primitive"/>
          </g>
          <g transform="translate(68.54,26.28)" id="img-4b8d6fae-28" class="color_" stroke="#238EA9" stroke-dasharray="none">
            <path fill="none" d="M-7.73,2.91 L -8.19 2.75 -8.2 2.74 -8.61 2.58 -8.65 2.56 -9 2.41 -9.12 2.35 -9.35 2.24 -9.59 2.12 -9.67 2.08 -9.96 1.91 -10.05 1.85 -10.22 1.74 -10.45 1.57 -10.52 1.52 -10.66 1.41 -10.85 1.24 -10.99 1.1 -11.01 1.07 -11.15 0.9 -11.26 0.74 -11.36 0.57 -11.42 0.4 -11.45 0.3 -11.47 0.24 -11.49 0.07 -11.49 -0.1 -11.47 -0.27 -11.45 -0.33 -11.42 -0.43 -11.36 -0.6 -11.26 -0.77 -11.15 -0.93 -11.01 -1.1 -10.99 -1.13 -10.85 -1.27 -10.66 -1.44 -10.52 -1.55 -10.45 -1.6 -10.22 -1.77 -10.05 -1.88 -9.96 -1.94 -9.67 -2.1 -9.59 -2.15 -9.35 -2.27 -9.12 -2.38 -9 -2.44 -8.65 -2.59 -8.61 -2.61 -8.2 -2.77 -8.19 -2.78 -7.73 -2.94 -7.72 -2.94 -7.25 -3.1 -7.23 -3.11 -6.79 -3.24 -6.66 -3.27 -6.32 -3.37 -6.02 -3.44 -5.85 -3.48 -5.39 -3.59 -5.3 -3.61 -4.92 -3.69 -4.45 -3.77 -4.44 -3.78 -3.99 -3.85 -3.52 -3.92 -3.34 -3.94 -3.05 -3.98 -2.59 -4.03 -2.12 -4.07 -1.65 -4.11 -1.64 -4.11 -1.19 -4.14 -0.72 -4.15 -0.25 -4.16 0.21 -4.17 0.68 -4.16 1.15 -4.15 1.61 -4.12 1.82 -4.11 2.08 -4.09 2.55 -4.05 3.01 -4.01 3.48 -3.95 3.54 -3.94 3.95 -3.89 4.41 -3.81 4.63 -3.78 4.88 -3.73 5.35 -3.64 5.49 -3.61 5.81 -3.54 6.22 -3.44 6.28 -3.43 6.75 -3.3 6.85 -3.27 7.21 -3.17 7.42 -3.11 7.68 -3.02 7.93 -2.94 8.15 -2.86 8.39 -2.77 8.62 -2.68 8.81 -2.61 9.08 -2.49 9.19 -2.44 9.54 -2.27 9.55 -2.27 9.86 -2.1 10.02 -2.02 10.15 -1.94 10.41 -1.77 10.48 -1.72 10.65 -1.6 10.86 -1.44 10.95 -1.36 11.04 -1.27 11.21 -1.1 11.34 -0.93 11.42 -0.83 11.46 -0.77 11.55 -0.6 11.62 -0.43 11.66 -0.27 11.69 -0.1 11.69 0.07 11.66 0.24 11.62 0.4 11.55 0.57 11.46 0.74 11.42 0.8 11.34 0.9 11.21 1.07 11.04 1.24 10.95 1.33 10.86 1.41 10.65 1.57 10.48 1.69 10.41 1.74 10.15 1.91 10.02 1.99 9.86 2.08 9.55 2.24 9.54 2.24 9.19 2.41 9.08 2.46 8.81 2.58 8.62 2.65 8.39 2.74 8.15 2.83 7.93 2.91 7.68 2.99 7.42 3.08 7.21 3.14 6.85 3.25 6.75 3.28 6.28 3.4 6.22 3.41 5.81 3.51 5.49 3.58 5.35 3.61 4.88 3.7 4.63 3.75 4.41 3.78 3.95 3.86 3.54 3.91 3.48 3.92 3.01 3.98 2.55 4.02 2.08 4.06 1.82 4.08 1.61 4.09 1.15 4.12 0.68 4.13 0.21 4.14 -0.25 4.14 -0.72 4.13 -1.19 4.11 -1.64 4.08 -1.65 4.08 -2.12 4.05 -2.59 4 -3.05 3.95 -3.34 3.91 -3.52 3.89 -3.99 3.82 -4.44 3.75 -4.45 3.74 -4.92 3.66 -5.3 3.58 -5.39 3.56 -5.85 3.45 -6.02 3.41 -6.32 3.34 -6.66 3.25 -6.79 3.21 -7.23 3.08 -7.25 3.07 -7.72 2.92 -7.73 2.91" class="primitive"/>
          </g>
          <g transform="translate(68.72,26.24)" id="img-4b8d6fae-29" class="color_" stroke="#5CAAB6" stroke-dasharray="none">
            <path fill="none" d="M5.18,-4.75 L 5.64 -4.66 6.06 -4.58 6.1 -4.57 6.57 -4.47 6.82 -4.41 7.04 -4.36 7.5 -4.24 7.5 -4.24 7.97 -4.12 8.12 -4.08 8.44 -3.99 8.69 -3.91 8.91 -3.84 9.22 -3.74 9.37 -3.69 9.71 -3.58 9.84 -3.53 10.17 -3.41 10.31 -3.36 10.6 -3.24 10.77 -3.17 11 -3.07 11.24 -2.97 11.38 -2.91 11.71 -2.75 11.74 -2.74 12.07 -2.57 12.17 -2.52 12.37 -2.41 12.64 -2.25 12.66 -2.24 12.92 -2.07 13.11 -1.95 13.17 -1.9 13.39 -1.74 13.57 -1.59 13.6 -1.57 13.78 -1.4 13.94 -1.23 14.04 -1.12 14.08 -1.07 14.2 -0.9 14.31 -0.73 14.39 -0.57 14.45 -0.4 14.49 -0.23 14.51 -0.09 14.51 -0.06 14.51 0.1 14.51 0.13 14.49 0.27 14.45 0.44 14.39 0.6 14.31 0.77 14.2 0.94 14.08 1.11 14.04 1.16 13.94 1.27 13.78 1.44 13.6 1.61 13.57 1.63 13.39 1.77 13.17 1.94 13.11 1.99 12.92 2.11 12.66 2.28 12.64 2.29 12.37 2.44 12.17 2.55 12.07 2.61 11.74 2.78 11.71 2.79 11.38 2.94 11.24 3.01 11 3.11 10.77 3.21 10.6 3.28 10.31 3.4 10.17 3.45 9.84 3.57 9.71 3.61 9.37 3.73 9.22 3.78 8.91 3.88 8.69 3.95 8.44 4.02 8.12 4.11 7.97 4.16 7.5 4.28 7.5 4.28 7.04 4.4 6.82 4.45 6.57 4.51 6.1 4.61 6.06 4.62 5.64 4.7 5.18 4.78 5.17 4.79 4.7 4.86 4.24 4.93 4.12 4.95 3.77 5 3.3 5.05 2.84 5.1 2.68 5.12 2.37 5.14 1.9 5.18 1.44 5.21 0.97 5.23 0.5 5.24 0.04 5.24 -0.43 5.24 -0.9 5.23 -1.36 5.22 -1.83 5.19 -2.3 5.16 -2.76 5.13 -2.84 5.12 -3.23 5.08 -3.7 5.03 -4.16 4.97 -4.28 4.95 -4.63 4.9 -5.1 4.83 -5.34 4.78 -5.56 4.74 -6.03 4.65 -6.21 4.62 -6.5 4.56 -6.96 4.45 -6.98 4.45 -7.43 4.34 -7.66 4.28 -7.9 4.22 -8.28 4.11 -8.36 4.09 -8.83 3.95 -8.85 3.95 -9.3 3.81 -9.38 3.78 -9.76 3.65 -9.87 3.61 -10.23 3.48 -10.33 3.45 -10.7 3.3 -10.76 3.28 -11.16 3.11 -11.17 3.11 -11.54 2.94 -11.63 2.9 -11.89 2.78 -12.1 2.68 -12.22 2.61 -12.53 2.44 -12.56 2.43 -12.82 2.28 -13.03 2.14 -13.08 2.11 -13.33 1.94 -13.5 1.82 -13.55 1.77 -13.75 1.61 -13.94 1.44 -13.96 1.41 -14.1 1.27 -14.24 1.11 -14.36 0.94 -14.43 0.83 -14.47 0.77 -14.55 0.6 -14.61 0.44 -14.65 0.27 -14.67 0.1 -14.67 -0.06 -14.65 -0.23 -14.61 -0.4 -14.55 -0.57 -14.47 -0.73 -14.43 -0.79 -14.36 -0.9 -14.24 -1.07 -14.1 -1.23 -13.96 -1.37 -13.94 -1.4 -13.75 -1.57 -13.55 -1.74 -13.5 -1.78 -13.33 -1.9 -13.08 -2.07 -13.03 -2.1 -12.82 -2.24 -12.56 -2.39 -12.53 -2.41 -12.22 -2.57 -12.1 -2.64 -11.89 -2.74 -11.63 -2.86 -11.54 -2.91 -11.17 -3.07 -11.16 -3.07 -10.76 -3.24 -10.7 -3.27 -10.33 -3.41 -10.23 -3.45 -9.87 -3.58 -9.76 -3.61 -9.38 -3.74 -9.3 -3.77 -8.85 -3.91 -8.83 -3.92 -8.36 -4.05 -8.28 -4.08 -7.9 -4.18 -7.66 -4.24 -7.43 -4.3 -6.98 -4.41 -6.96 -4.41 -6.5 -4.52 -6.21 -4.58 -6.03 -4.62 -5.56 -4.71 -5.34 -4.75 -5.1 -4.79 -4.63 -4.86 -4.28 -4.91 -4.16 -4.93 -3.7 -4.99 -3.23 -5.04 -2.84 -5.08 -2.76 -5.09 -2.3 -5.13 -1.83 -5.16 -1.36 -5.18 -0.9 -5.2 -0.43 -5.21 0.04 -5.21 0.5 -5.2 0.97 -5.19 1.44 -5.17 1.9 -5.14 2.37 -5.11 2.68 -5.08 2.84 -5.07 3.3 -5.02 3.77 -4.96 4.12 -4.91 4.24 -4.9 4.7 -4.83 5.17 -4.75 5.18 -4.75" class="primitive"/>
          </g>
          <g transform="translate(68.57,26.24)" id="img-4b8d6fae-30" class="color_" stroke="#88C4C4" stroke-dasharray="none">
            <path fill="none" d="M-1.22,-6.18 L -1.69 -6.16 -2.15 -6.13 -2.62 -6.09 -2.73 -6.08 -3.09 -6.05 -3.55 -6 -4.02 -5.94 -4.21 -5.91 -4.49 -5.88 -4.95 -5.81 -5.32 -5.75 -5.42 -5.73 -5.89 -5.65 -6.23 -5.58 -6.36 -5.56 -6.82 -5.46 -7.04 -5.41 -7.29 -5.36 -7.76 -5.25 -7.77 -5.25 -8.22 -5.13 -8.44 -5.08 -8.69 -5.01 -9.06 -4.91 -9.16 -4.89 -9.62 -4.75 -9.65 -4.74 -10.09 -4.61 -10.2 -4.58 -10.56 -4.46 -10.72 -4.41 -11.02 -4.31 -11.21 -4.24 -11.49 -4.14 -11.68 -4.07 -11.96 -3.97 -12.13 -3.91 -12.42 -3.79 -12.56 -3.74 -12.89 -3.61 -12.97 -3.57 -13.36 -3.41 -13.36 -3.41 -13.73 -3.24 -13.82 -3.19 -14.08 -3.07 -14.29 -2.97 -14.41 -2.9 -14.73 -2.74 -14.76 -2.72 -15.03 -2.57 -15.22 -2.45 -15.31 -2.4 -15.57 -2.24 -15.69 -2.16 -15.82 -2.07 -16.05 -1.9 -16.16 -1.81 -16.26 -1.73 -16.45 -1.57 -16.62 -1.4 -16.62 -1.4 -16.78 -1.23 -16.91 -1.07 -17.03 -0.9 -17.09 -0.79 -17.13 -0.73 -17.21 -0.56 -17.26 -0.4 -17.3 -0.23 -17.32 -0.06 -17.32 0.1 -17.3 0.27 -17.26 0.44 -17.21 0.61 -17.13 0.77 -17.09 0.84 -17.03 0.94 -16.91 1.11 -16.78 1.27 -16.62 1.44 -16.62 1.44 -16.45 1.61 -16.26 1.78 -16.16 1.86 -16.05 1.94 -15.82 2.11 -15.69 2.2 -15.57 2.28 -15.31 2.44 -15.22 2.5 -15.03 2.61 -14.76 2.76 -14.73 2.78 -14.41 2.95 -14.29 3.01 -14.08 3.11 -13.82 3.24 -13.73 3.28 -13.36 3.45 -13.36 3.45 -12.97 3.62 -12.89 3.65 -12.56 3.78 -12.42 3.84 -12.13 3.95 -11.96 4.02 -11.68 4.12 -11.49 4.19 -11.21 4.28 -11.02 4.35 -10.72 4.45 -10.56 4.5 -10.2 4.62 -10.09 4.65 -9.65 4.79 -9.62 4.79 -9.16 4.93 -9.06 4.95 -8.69 5.05 -8.44 5.12 -8.22 5.18 -7.77 5.29 -7.76 5.29 -7.29 5.4 -7.04 5.45 -6.82 5.5 -6.36 5.6 -6.23 5.62 -5.89 5.69 -5.42 5.77 -5.32 5.79 -4.95 5.85 -4.49 5.92 -4.21 5.96 -4.02 5.98 -3.55 6.04 -3.09 6.09 -2.73 6.12 -2.62 6.13 -2.15 6.17 -1.69 6.2 -1.22 6.22 -0.75 6.24 -0.29 6.25 0.18 6.25 0.65 6.24 1.11 6.23 1.58 6.21 2.05 6.19 2.51 6.15 2.85 6.12 2.98 6.11 3.45 6.06 3.91 6.01 4.34 5.96 4.38 5.95 4.85 5.88 5.31 5.81 5.44 5.79 5.78 5.73 6.25 5.64 6.36 5.62 6.71 5.55 7.17 5.45 7.18 5.45 7.65 5.35 7.9 5.29 8.11 5.23 8.57 5.12 8.58 5.12 9.05 4.99 9.19 4.95 9.51 4.86 9.77 4.79 9.98 4.72 10.32 4.62 10.45 4.58 10.84 4.45 10.91 4.43 11.34 4.28 11.38 4.27 11.81 4.12 11.85 4.1 12.26 3.95 12.31 3.93 12.68 3.78 12.78 3.74 13.09 3.62 13.25 3.55 13.48 3.45 13.71 3.34 13.85 3.28 14.18 3.12 14.2 3.11 14.54 2.95 14.65 2.89 14.85 2.78 15.11 2.63 15.15 2.61 15.43 2.44 15.58 2.35 15.7 2.28 15.94 2.11 16.05 2.03 16.17 1.94 16.38 1.78 16.51 1.66 16.57 1.61 16.75 1.44 16.9 1.27 16.98 1.18 17.04 1.11 17.15 0.94 17.25 0.77 17.33 0.61 17.39 0.44 17.43 0.27 17.45 0.1 17.45 -0.06 17.43 -0.23 17.39 -0.4 17.33 -0.56 17.25 -0.73 17.15 -0.9 17.04 -1.07 16.98 -1.13 16.9 -1.23 16.75 -1.4 16.57 -1.57 16.51 -1.62 16.38 -1.73 16.17 -1.9 16.05 -1.99 15.94 -2.07 15.7 -2.24 15.58 -2.31 15.43 -2.4 15.15 -2.57 15.11 -2.59 14.85 -2.74 14.65 -2.85 14.54 -2.9 14.2 -3.07 14.18 -3.08 13.85 -3.24 13.71 -3.3 13.48 -3.41 13.25 -3.51 13.09 -3.57 12.78 -3.7 12.68 -3.74 12.31 -3.89 12.26 -3.91 11.85 -4.06 11.81 -4.07 11.38 -4.23 11.34 -4.24 10.91 -4.39 10.84 -4.41 10.45 -4.54 10.32 -4.58 9.98 -4.68 9.77 -4.74 9.51 -4.82 9.19 -4.91 9.05 -4.95 8.58 -5.07 8.57 -5.08 8.11 -5.19 7.9 -5.25 7.65 -5.3 7.18 -5.41 7.17 -5.41 6.71 -5.51 6.36 -5.58 6.25 -5.6 5.78 -5.69 5.44 -5.75 5.31 -5.77 4.85 -5.84 4.38 -5.91 4.34 -5.91 3.91 -5.97 3.45 -6.02 2.98 -6.07 2.85 -6.08 2.51 -6.11 2.05 -6.14 1.58 -6.17 1.11 -6.19 0.65 -6.2 0.18 -6.21 -0.29 -6.21 -0.75 -6.2 -1.22 -6.18" class="primitive"/>
          </g>
          <g transform="translate(65.76,26.26)" id="img-4b8d6fae-31" class="color_" stroke="#A6CFC7" stroke-dasharray="none">
            <path fill="none" d="M20.26,-2.87 L 20.15 -2.93 19.83 -3.09 19.79 -3.11 19.49 -3.26 19.33 -3.34 19.14 -3.43 18.86 -3.56 18.78 -3.59 18.4 -3.76 18.39 -3.76 18.01 -3.93 17.93 -3.96 17.6 -4.1 17.46 -4.15 17.18 -4.26 16.99 -4.34 16.75 -4.43 16.53 -4.51 16.3 -4.6 16.06 -4.68 15.83 -4.76 15.59 -4.85 15.35 -4.93 15.13 -5.01 14.86 -5.1 14.66 -5.16 14.34 -5.27 14.19 -5.31 13.8 -5.43 13.73 -5.46 13.26 -5.6 13.24 -5.6 12.79 -5.73 12.66 -5.77 12.33 -5.86 12.04 -5.93 11.86 -5.98 11.39 -6.1 11.39 -6.1 10.93 -6.22 10.7 -6.27 10.46 -6.32 9.99 -6.43 9.95 -6.44 9.53 -6.52 9.13 -6.6 9.06 -6.62 8.59 -6.7 8.2 -6.77 8.13 -6.78 7.66 -6.86 7.19 -6.92 7.09 -6.94 6.72 -6.99 6.26 -7.04 5.79 -7.09 5.61 -7.1 5.32 -7.13 4.86 -7.16 4.39 -7.19 3.92 -7.21 3.46 -7.22 2.99 -7.23 2.52 -7.23 2.06 -7.22 1.59 -7.2 1.12 -7.18 0.66 -7.15 0.19 -7.11 0.13 -7.1 -0.28 -7.07 -0.74 -7.01 -1.21 -6.96 -1.34 -6.94 -1.68 -6.89 -2.14 -6.82 -2.45 -6.77 -2.61 -6.74 -3.08 -6.66 -3.38 -6.6 -3.54 -6.57 -4.01 -6.48 -4.2 -6.44 -4.48 -6.38 -4.94 -6.27 -4.95 -6.27 -5.41 -6.16 -5.64 -6.1 -5.88 -6.04 -6.29 -5.93 -6.34 -5.92 -6.81 -5.79 -6.91 -5.77 -7.28 -5.66 -7.49 -5.6 -7.74 -5.53 -8.05 -5.43 -8.21 -5.39 -8.59 -5.27 -8.68 -5.24 -9.11 -5.1 -9.14 -5.09 -9.61 -4.93 -9.61 -4.93 -10.08 -4.77 -10.09 -4.76 -10.54 -4.6 -10.55 -4.6 -11 -4.43 -11.01 -4.43 -11.44 -4.26 -11.48 -4.25 -11.85 -4.1 -11.94 -4.06 -12.26 -3.93 -12.41 -3.86 -12.65 -3.76 -12.88 -3.66 -13.03 -3.59 -13.34 -3.45 -13.39 -3.43 -13.74 -3.26 -13.81 -3.23 -14.08 -3.09 -14.28 -2.99 -14.4 -2.93 -14.71 -2.76 -14.75 -2.74 -15 -2.59 -15.21 -2.46 -15.28 -2.42 -15.54 -2.26 -15.68 -2.16 -15.78 -2.09 -16.01 -1.92 -16.15 -1.81 -16.22 -1.76 -16.41 -1.59 -16.59 -1.42 -16.61 -1.4 -16.75 -1.25 -16.89 -1.09 -17.01 -0.92 -17.08 -0.8 -17.11 -0.75 -17.19 -0.59 -17.25 -0.42 -17.29 -0.25 -17.31 -0.08 -17.31 0.08 -17.29 0.25 -17.25 0.42 -17.19 0.59 -17.11 0.75 -17.08 0.8 -17.01 0.92 -16.89 1.09 -16.75 1.25 -16.61 1.4 -16.59 1.42 -16.41 1.59 -16.22 1.76 -16.15 1.81 -16.01 1.92 -15.78 2.09 -15.68 2.16 -15.54 2.26 -15.28 2.42 -15.21 2.46 -15 2.59 -14.75 2.74 -14.71 2.76 -14.4 2.93 -14.28 2.99 -14.08 3.09 -13.81 3.23 -13.74 3.26 -13.39 3.43 -13.34 3.45 -13.03 3.59 -12.88 3.66 -12.65 3.76 -12.41 3.86 -12.26 3.93 -11.94 4.06 -11.85 4.1 -11.48 4.25 -11.44 4.26 -11.01 4.43 -11 4.43 -10.55 4.6 -10.54 4.6 -10.09 4.76 -10.08 4.77 -9.61 4.93 -9.61 4.93 -9.14 5.09 -9.11 5.1 -8.68 5.24 -8.59 5.27 -8.21 5.39 -8.05 5.43 -7.74 5.53 -7.49 5.6 -7.28 5.66 -6.91 5.77 -6.81 5.79 -6.34 5.92 -6.29 5.93 -5.88 6.04 -5.64 6.1 -5.41 6.16 -4.95 6.27 -4.94 6.27 -4.48 6.38 -4.2 6.44 -4.01 6.48 -3.54 6.57 -3.38 6.6 -3.08 6.66 -2.61 6.74 -2.45 6.77 -2.14 6.82 -1.68 6.89 -1.34 6.94 -1.21 6.96 -0.74 7.01 -0.28 7.07 0.13 7.1 0.19 7.11 0.66 7.15 1.12 7.18 1.59 7.2 2.06 7.22 2.52 7.23 2.99 7.23 3.46 7.22 3.92 7.21 4.39 7.19 4.86 7.16 5.32 7.13 5.61 7.1 5.79 7.09 6.26 7.04 6.72 6.99 7.09 6.94 7.19 6.92 7.66 6.86 8.13 6.78 8.2 6.77 8.59 6.7 9.06 6.62 9.13 6.6 9.53 6.52 9.95 6.44 9.99 6.43 10.46 6.32 10.7 6.27 10.93 6.22 11.39 6.1 11.39 6.1 11.86 5.98 12.04 5.93 12.33 5.86 12.66 5.77 12.79 5.73 13.24 5.6 13.26 5.6 13.73 5.46 13.8 5.43 14.19 5.31 14.34 5.27 14.66 5.16 14.86 5.1 15.13 5.01 15.35 4.93 15.59 4.85 15.83 4.76 16.06 4.68 16.3 4.6 16.53 4.51 16.75 4.43 16.99 4.34 17.18 4.26 17.46 4.15 17.6 4.1 17.93 3.96 18.01 3.93 18.39 3.76 18.4 3.76 18.78 3.59 18.86 3.56 19.14 3.43 19.33 3.34 19.49 3.26 19.79 3.11 19.83 3.09 20.15 2.93 20.26 2.87" class="primitive"/>
          </g>
          <g transform="translate(18.16,26.26)" id="img-4b8d6fae-32" class="color_" stroke="#A6CFC7" stroke-dasharray="none">
            <path fill="none" d="M-1.68,-2.87 L -1.48 -2.76 -1.21 -2.6 -1.19 -2.59 -0.91 -2.42 -0.75 -2.32 -0.65 -2.26 -0.41 -2.09 -0.28 -1.99 -0.18 -1.92 0.03 -1.76 0.19 -1.62 0.22 -1.59 0.4 -1.42 0.56 -1.25 0.65 -1.14 0.7 -1.09 0.82 -0.92 0.92 -0.75 1 -0.59 1.06 -0.42 1.1 -0.25 1.12 -0.08 1.12 0.08 1.1 0.25 1.06 0.42 1 0.59 0.92 0.75 0.82 0.92 0.7 1.09 0.65 1.14 0.56 1.25 0.4 1.42 0.22 1.59 0.19 1.62 0.03 1.76 -0.18 1.92 -0.28 1.99 -0.41 2.09 -0.65 2.26 -0.75 2.32 -0.91 2.42 -1.19 2.59 -1.21 2.6 -1.48 2.76 -1.68 2.87" class="primitive"/>
          </g>
          <g transform="translate(63.94,26.26)" id="img-4b8d6fae-33" class="color_" stroke="#B5CCC2" stroke-dasharray="none">
            <path fill="none" d="M22.08,-4.15 L 21.81 -4.26 21.62 -4.34 21.4 -4.43 21.15 -4.53 20.97 -4.6 20.68 -4.71 20.54 -4.76 20.22 -4.89 20.09 -4.93 19.75 -5.06 19.64 -5.1 19.28 -5.23 19.17 -5.27 18.82 -5.39 18.7 -5.43 18.35 -5.55 18.21 -5.6 17.88 -5.71 17.72 -5.77 17.42 -5.87 17.21 -5.93 16.95 -6.02 16.69 -6.1 16.48 -6.17 16.15 -6.27 16.02 -6.31 15.6 -6.44 15.55 -6.45 15.08 -6.59 15.03 -6.6 14.62 -6.72 14.44 -6.77 14.15 -6.85 13.83 -6.94 13.68 -6.98 13.21 -7.1 13.19 -7.1 12.75 -7.22 12.52 -7.27 12.28 -7.33 11.81 -7.44 11.8 -7.44 11.35 -7.54 11.03 -7.61 10.88 -7.64 10.41 -7.73 10.17 -7.77 9.95 -7.81 9.48 -7.89 9.18 -7.94 9.01 -7.97 8.55 -8.03 8.08 -8.09 7.96 -8.11 7.61 -8.15 7.15 -8.19 6.68 -8.23 6.21 -8.26 5.91 -8.28 5.75 -8.28 5.28 -8.3 4.81 -8.3 4.35 -8.3 3.88 -8.29 3.47 -8.28 3.41 -8.27 2.95 -8.25 2.48 -8.21 2.01 -8.17 1.55 -8.12 1.43 -8.11 1.08 -8.07 0.61 -8 0.21 -7.94 0.15 -7.93 -0.32 -7.86 -0.78 -7.77 -0.79 -7.77 -1.25 -7.68 -1.63 -7.61 -1.72 -7.59 -2.19 -7.49 -2.41 -7.44 -2.65 -7.38 -3.12 -7.27 -3.13 -7.27 -3.59 -7.16 -3.8 -7.1 -4.05 -7.04 -4.44 -6.94 -4.52 -6.92 -4.99 -6.79 -5.05 -6.77 -5.45 -6.66 -5.64 -6.6 -5.92 -6.52 -6.21 -6.44 -6.39 -6.38 -6.76 -6.27 -6.85 -6.24 -7.3 -6.1 -7.32 -6.09 -7.79 -5.94 -7.82 -5.93 -8.26 -5.79 -8.32 -5.77 -8.72 -5.63 -8.82 -5.6 -9.19 -5.47 -9.31 -5.43 -9.66 -5.31 -9.78 -5.27 -10.12 -5.14 -10.24 -5.1 -10.59 -4.97 -10.7 -4.93 -11.06 -4.8 -11.14 -4.76 -11.52 -4.62 -11.58 -4.6 -11.99 -4.44 -12 -4.43 -12.42 -4.26 -12.46 -4.25 -12.82 -4.1 -12.92 -4.05 -13.22 -3.93 -13.39 -3.86 -13.61 -3.76 -13.86 -3.65 -13.98 -3.59 -14.32 -3.44 -14.35 -3.43 -14.7 -3.26 -14.79 -3.22 -15.04 -3.09 -15.26 -2.98 -15.37 -2.93 -15.69 -2.76 -15.72 -2.74 -15.99 -2.59 -16.19 -2.48 -16.28 -2.42 -16.56 -2.26 -16.66 -2.19 -16.82 -2.09 -17.06 -1.92 -17.12 -1.88 -17.29 -1.76 -17.5 -1.59 -17.59 -1.51 -17.69 -1.42 -17.86 -1.25 -18.02 -1.09 -18.06 -1.03 -18.15 -0.92 -18.26 -0.75 -18.35 -0.59 -18.42 -0.42 -18.46 -0.25 -18.48 -0.08 -18.48 0.08 -18.46 0.25 -18.42 0.42 -18.35 0.59 -18.26 0.75 -18.15 0.92 -18.06 1.03 -18.02 1.09 -17.86 1.25 -17.69 1.42 -17.59 1.51 -17.5 1.59 -17.29 1.76 -17.12 1.88 -17.06 1.92 -16.82 2.09 -16.66 2.19 -16.56 2.26 -16.28 2.42 -16.19 2.48 -15.99 2.59 -15.72 2.74 -15.69 2.76 -15.37 2.93 -15.26 2.98 -15.04 3.09 -14.79 3.22 -14.7 3.26 -14.35 3.43 -14.32 3.44 -13.98 3.59 -13.86 3.65 -13.61 3.76 -13.39 3.86 -13.22 3.93 -12.92 4.05 -12.82 4.1 -12.46 4.25 -12.42 4.26 -12 4.43 -11.99 4.44 -11.58 4.6 -11.52 4.62 -11.14 4.76 -11.06 4.8 -10.7 4.93 -10.59 4.97 -10.24 5.1 -10.12 5.14 -9.78 5.27 -9.66 5.31 -9.31 5.43 -9.19 5.47 -8.82 5.6 -8.72 5.63 -8.32 5.77 -8.26 5.79 -7.82 5.93 -7.79 5.94 -7.32 6.09 -7.3 6.1 -6.85 6.24 -6.76 6.27 -6.39 6.38 -6.21 6.44 -5.92 6.52 -5.64 6.6 -5.45 6.66 -5.05 6.77 -4.99 6.79 -4.52 6.92 -4.44 6.94 -4.05 7.04 -3.8 7.1 -3.59 7.16 -3.13 7.27 -3.12 7.27 -2.65 7.38 -2.41 7.44 -2.19 7.49 -1.72 7.59 -1.63 7.61 -1.25 7.68 -0.79 7.77 -0.78 7.77 -0.32 7.86 0.15 7.93 0.21 7.94 0.61 8 1.08 8.07 1.43 8.11 1.55 8.12 2.01 8.17 2.48 8.21 2.95 8.25 3.41 8.27 3.47 8.28 3.88 8.29 4.35 8.3 4.81 8.3 5.28 8.3 5.75 8.28 5.91 8.28 6.21 8.26 6.68 8.23 7.15 8.19 7.61 8.15 7.96 8.11 8.08 8.09 8.55 8.03 9.01 7.97 9.18 7.94 9.48 7.89 9.95 7.81 10.17 7.77 10.41 7.73 10.88 7.64 11.03 7.61 11.35 7.54 11.8 7.44 11.81 7.44 12.28 7.33 12.52 7.27 12.75 7.22 13.19 7.1 13.21 7.1 13.68 6.98 13.83 6.94 14.15 6.85 14.44 6.77 14.62 6.72 15.03 6.6 15.08 6.59 15.55 6.45 15.6 6.44 16.02 6.31 16.15 6.27 16.48 6.17 16.69 6.1 16.95 6.02 17.21 5.93 17.42 5.87 17.72 5.77 17.88 5.71 18.21 5.6 18.35 5.55 18.7 5.43 18.82 5.39 19.17 5.27 19.28 5.23 19.64 5.1 19.75 5.06 20.09 4.93 20.22 4.89 20.54 4.76 20.68 4.71 20.97 4.6 21.15 4.53 21.4 4.43 21.62 4.34 21.81 4.26 22.08 4.15" class="primitive"/>
          </g>
          <g transform="translate(19.88,26.26)" id="img-4b8d6fae-34" class="color_" stroke="#B5CCC2" stroke-dasharray="none">
            <path fill="none" d="M-3.4,-4.15 L -3.26 -4.1 -2.93 -3.96 -2.87 -3.93 -2.48 -3.76 -2.47 -3.75 -2.11 -3.59 -2 -3.54 -1.74 -3.43 -1.53 -3.33 -1.39 -3.26 -1.07 -3.1 -1.05 -3.09 -0.72 -2.93 -0.6 -2.86 -0.4 -2.76 -0.13 -2.61 -0.1 -2.59 0.2 -2.42 0.34 -2.34 0.47 -2.26 0.73 -2.09 0.8 -2.04 0.97 -1.92 1.2 -1.76 1.27 -1.7 1.41 -1.59 1.6 -1.42 1.74 -1.29 1.77 -1.25 1.93 -1.09 2.06 -0.92 2.17 -0.75 2.2 -0.69 2.26 -0.59 2.33 -0.42 2.37 -0.25 2.4 -0.08 2.4 0.08 2.37 0.25 2.33 0.42 2.26 0.59 2.2 0.69 2.17 0.75 2.06 0.92 1.93 1.09 1.77 1.25 1.74 1.29 1.6 1.42 1.41 1.59 1.27 1.7 1.2 1.76 0.97 1.92 0.8 2.04 0.73 2.09 0.47 2.26 0.34 2.34 0.2 2.42 -0.1 2.59 -0.13 2.61 -0.4 2.76 -0.6 2.86 -0.72 2.93 -1.05 3.09 -1.07 3.1 -1.39 3.26 -1.53 3.33 -1.74 3.43 -2 3.54 -2.11 3.59 -2.47 3.75 -2.48 3.76 -2.87 3.93 -2.93 3.96 -3.26 4.1 -3.4 4.15" class="primitive"/>
          </g>
          <g transform="translate(62.16,26.26)" id="img-4b8d6fae-35" class="color_" stroke="#B9CBBD" stroke-dasharray="none">
            <path fill="none" d="M23.86,5.23 L 23.75 5.27 23.39 5.4 23.3 5.43 22.93 5.57 22.84 5.6 22.46 5.74 22.37 5.77 21.99 5.9 21.9 5.93 21.53 6.07 21.43 6.1 21.06 6.23 20.95 6.27 20.59 6.39 20.46 6.44 20.13 6.55 19.97 6.6 19.66 6.71 19.47 6.77 19.19 6.86 18.96 6.94 18.73 7.02 18.45 7.1 18.26 7.17 17.93 7.27 17.79 7.32 17.4 7.44 17.33 7.46 16.87 7.61 16.86 7.61 16.39 7.75 16.32 7.77 15.93 7.89 15.75 7.94 15.46 8.03 15.17 8.11 14.99 8.16 14.58 8.28 14.53 8.29 14.06 8.42 13.96 8.44 13.59 8.54 13.31 8.61 13.13 8.66 12.66 8.77 12.63 8.78 12.19 8.88 11.89 8.94 11.73 8.98 11.26 9.08 11.07 9.11 10.79 9.17 10.33 9.25 10.13 9.28 9.86 9.32 9.39 9.39 8.94 9.45 8.93 9.45 8.46 9.5 7.99 9.54 7.53 9.56 7.06 9.58 6.59 9.59 6.13 9.59 5.66 9.57 5.19 9.55 4.73 9.52 4.26 9.47 4.02 9.45 3.79 9.42 3.33 9.36 2.86 9.29 2.81 9.28 2.39 9.21 1.93 9.12 1.88 9.11 1.46 9.03 1.06 8.94 0.99 8.93 0.52 8.82 0.33 8.78 0.06 8.71 -0.36 8.61 -0.41 8.6 -0.88 8.48 -1.01 8.44 -1.34 8.35 -1.62 8.28 -1.81 8.23 -2.22 8.11 -2.28 8.09 -2.74 7.96 -2.8 7.94 -3.21 7.82 -3.36 7.77 -3.68 7.68 -3.91 7.61 -4.14 7.54 -4.45 7.44 -4.61 7.39 -4.98 7.27 -5.08 7.24 -5.5 7.1 -5.54 7.09 -6.01 6.94 -6.01 6.94 -6.48 6.78 -6.52 6.77 -6.94 6.63 -7.02 6.6 -7.41 6.47 -7.51 6.44 -7.88 6.31 -7.99 6.27 -8.34 6.15 -8.47 6.1 -8.81 5.98 -8.95 5.93 -9.28 5.82 -9.42 5.77 -9.74 5.65 -9.89 5.6 -10.21 5.48 -10.35 5.43 -10.68 5.31 -10.8 5.27 -11.14 5.14 -11.25 5.1 -11.61 4.96 -11.7 4.93 -12.08 4.79 -12.14 4.76 -12.54 4.61 -12.57 4.6 -13 4.43 -13.01 4.43 -13.43 4.26 -13.48 4.24 -13.85 4.1 -13.94 4.06 -14.26 3.93 -14.41 3.87 -14.67 3.76 -14.88 3.67 -15.06 3.59 -15.34 3.47 -15.46 3.43 -15.81 3.27 -15.84 3.26 -16.21 3.09 -16.28 3.06 -16.58 2.93 -16.74 2.85 -16.93 2.76 -17.21 2.62 -17.28 2.59 -17.61 2.42 -17.68 2.39 -17.93 2.26 -18.14 2.14 -18.23 2.09 -18.52 1.92 -18.61 1.87 -18.8 1.76 -19.05 1.59 -19.08 1.57 -19.29 1.42 -19.5 1.25 -19.54 1.22 -19.69 1.09 -19.86 0.92 -20 0.75 -20.01 0.74 -20.12 0.59 -20.21 0.42 -20.27 0.25 -20.3 0.08 -20.3 -0.08 -20.27 -0.25 -20.21 -0.42 -20.12 -0.59 -20.01 -0.74 -20 -0.75 -19.86 -0.92 -19.69 -1.09 -19.54 -1.22 -19.5 -1.25 -19.29 -1.42 -19.08 -1.57 -19.05 -1.59 -18.8 -1.76 -18.61 -1.87 -18.52 -1.92 -18.23 -2.09 -18.14 -2.14 -17.93 -2.26 -17.68 -2.39 -17.61 -2.42 -17.28 -2.59 -17.21 -2.62 -16.93 -2.76 -16.74 -2.85 -16.58 -2.93 -16.28 -3.06 -16.21 -3.09 -15.84 -3.26 -15.81 -3.27 -15.46 -3.43 -15.34 -3.47 -15.06 -3.59 -14.88 -3.67 -14.67 -3.76 -14.41 -3.87 -14.26 -3.93 -13.94 -4.06 -13.85 -4.1 -13.48 -4.24 -13.43 -4.26 -13.01 -4.43 -13 -4.43 -12.57 -4.6 -12.54 -4.61 -12.14 -4.76 -12.08 -4.79 -11.7 -4.93 -11.61 -4.96 -11.25 -5.1 -11.14 -5.14 -10.8 -5.27 -10.68 -5.31 -10.35 -5.43 -10.21 -5.48 -9.89 -5.6 -9.74 -5.65 -9.42 -5.77 -9.28 -5.82 -8.95 -5.93 -8.81 -5.98 -8.47 -6.1 -8.34 -6.15 -7.99 -6.27 -7.88 -6.31 -7.51 -6.44 -7.41 -6.47 -7.02 -6.6 -6.94 -6.63 -6.52 -6.77 -6.48 -6.78 -6.01 -6.94 -6.01 -6.94 -5.54 -7.09 -5.5 -7.1 -5.08 -7.24 -4.98 -7.27 -4.61 -7.39 -4.45 -7.44 -4.14 -7.54 -3.91 -7.61 -3.68 -7.68 -3.36 -7.77 -3.21 -7.82 -2.8 -7.94 -2.74 -7.96 -2.28 -8.09 -2.22 -8.11 -1.81 -8.23 -1.62 -8.28 -1.34 -8.35 -1.01 -8.44 -0.88 -8.48 -0.41 -8.6 -0.36 -8.61 0.06 -8.71 0.33 -8.78 0.52 -8.82 0.99 -8.93 1.06 -8.94 1.46 -9.03 1.88 -9.11 1.93 -9.12 2.39 -9.21 2.81 -9.28 2.86 -9.29 3.33 -9.36 3.79 -9.42 4.02 -9.45 4.26 -9.47 4.73 -9.52 5.19 -9.55 5.66 -9.57 6.13 -9.59 6.59 -9.59 7.06 -9.58 7.53 -9.56 7.99 -9.54 8.46 -9.5 8.93 -9.45 8.94 -9.45 9.39 -9.39 9.86 -9.32 10.13 -9.28 10.33 -9.25 10.79 -9.17 11.07 -9.11 11.26 -9.08 11.73 -8.98 11.89 -8.94 12.19 -8.88 12.63 -8.78 12.66 -8.77 13.13 -8.66 13.31 -8.61 13.59 -8.54 13.96 -8.44 14.06 -8.42 14.53 -8.29 14.58 -8.28 14.99 -8.16 15.17 -8.11 15.46 -8.03 15.75 -7.94 15.93 -7.89 16.32 -7.77 16.39 -7.75 16.86 -7.61 16.87 -7.61 17.33 -7.46 17.4 -7.44 17.79 -7.32 17.93 -7.27 18.26 -7.17 18.45 -7.1 18.73 -7.02 18.96 -6.94 19.19 -6.86 19.47 -6.77 19.66 -6.71 19.97 -6.6 20.13 -6.55 20.46 -6.44 20.59 -6.39 20.95 -6.27 21.06 -6.23 21.43 -6.1 21.53 -6.07 21.9 -5.93 21.99 -5.9 22.37 -5.77 22.46 -5.74 22.84 -5.6 22.93 -5.57 23.3 -5.43 23.39 -5.4 23.75 -5.27 23.86 -5.23" class="primitive"/>
          </g>
          <g transform="translate(21.85,26.26)" id="img-4b8d6fae-36" class="color_" stroke="#B9CBBD" stroke-dasharray="none">
            <path fill="none" d="M-5.37,-5.23 L -5.03 -5.1 -4.91 -5.05 -4.59 -4.93 -4.44 -4.88 -4.14 -4.76 -3.97 -4.7 -3.71 -4.6 -3.51 -4.52 -3.28 -4.43 -3.04 -4.34 -2.85 -4.26 -2.57 -4.15 -2.44 -4.1 -2.11 -3.96 -2.02 -3.93 -1.64 -3.77 -1.62 -3.76 -1.22 -3.59 -1.17 -3.57 -0.83 -3.43 -0.71 -3.37 -0.44 -3.26 -0.24 -3.17 -0.07 -3.09 0.23 -2.96 0.29 -2.93 0.65 -2.76 0.69 -2.74 0.99 -2.59 1.16 -2.51 1.33 -2.42 1.63 -2.27 1.64 -2.26 1.95 -2.09 2.09 -2.01 2.24 -1.92 2.51 -1.76 2.56 -1.72 2.77 -1.59 3 -1.42 3.03 -1.4 3.22 -1.25 3.41 -1.09 3.49 -1 3.58 -0.92 3.72 -0.75 3.84 -0.59 3.92 -0.42 3.96 -0.31 3.98 -0.25 4.01 -0.08 4.01 0.08 3.98 0.25 3.96 0.31 3.92 0.42 3.84 0.59 3.72 0.75 3.58 0.92 3.49 1 3.41 1.09 3.22 1.25 3.03 1.4 3 1.42 2.77 1.59 2.56 1.72 2.51 1.76 2.24 1.92 2.09 2.01 1.95 2.09 1.64 2.26 1.63 2.27 1.33 2.42 1.16 2.51 0.99 2.59 0.69 2.74 0.65 2.76 0.29 2.93 0.23 2.96 -0.07 3.09 -0.24 3.17 -0.44 3.26 -0.71 3.37 -0.83 3.43 -1.17 3.57 -1.22 3.59 -1.62 3.76 -1.64 3.77 -2.02 3.93 -2.11 3.96 -2.44 4.1 -2.57 4.15 -2.85 4.26 -3.04 4.34 -3.28 4.43 -3.51 4.52 -3.71 4.6 -3.97 4.7 -4.14 4.76 -4.44 4.88 -4.59 4.93 -4.91 5.05 -5.03 5.1 -5.37 5.23" class="primitive"/>
          </g>
          <g transform="translate(51.31,26.26)" id="img-4b8d6fae-37" class="color_" stroke="#BECAB9" stroke-dasharray="none">
            <path fill="none" d="M17.39,12.45 L 16.98 12.38 16.88 12.29 16.51 12.18 16.4 12.12 16.05 12.01 15.93 11.95 15.58 11.83 15.47 11.79 15.11 11.67 15 11.62 14.65 11.5 14.53 11.45 14.18 11.33 14.06 11.28 13.71 11.16 13.6 11.12 13.25 10.99 13.13 10.95 12.78 10.83 12.66 10.78 12.31 10.66 12.2 10.62 11.85 10.49 11.73 10.45 11.38 10.32 11.26 10.28 10.91 10.16 10.8 10.11 10.45 9.99 10.33 9.95 9.98 9.82 9.86 9.78 9.51 9.66 9.4 9.61 9.05 9.49 8.93 9.45 8.58 9.32 8.46 9.28 8.11 9.15 8 9.11 7.65 8.99 7.53 8.94 7.18 8.82 7.06 8.78 6.71 8.65 6.6 8.61 6.25 8.49 6.13 8.44 5.78 8.32 5.66 8.28 5.31 8.15 5.19 8.11 4.85 7.98 4.73 7.94 4.38 7.82 4.26 7.77 3.91 7.65 3.79 7.61 3.44 7.48 3.33 7.44 2.98 7.31 2.86 7.27 2.51 7.15 2.39 7.1 2.04 6.98 1.93 6.94 1.58 6.81 1.46 6.77 1.11 6.65 0.99 6.6 0.64 6.48 0.53 6.44 0.18 6.31 0.06 6.27 -0.29 6.14 -0.41 6.1 -0.76 5.98 -0.87 5.93 -1.22 5.81 -1.34 5.77 -1.69 5.64 -1.81 5.6 -2.16 5.48 -2.27 5.43 -2.62 5.31 -2.74 5.27 -3.09 5.14 -3.21 5.1 -3.56 4.97 -3.67 4.93 -4.02 4.81 -4.14 4.76 -4.49 4.64 -4.61 4.6 -4.96 4.47 -5.08 4.43 -5.42 4.3 -5.54 4.26 -5.89 4.14 -6.01 4.1 -6.36 3.97 -6.48 3.93 -6.82 3.8 -6.94 3.76 -7.29 3.64 -7.41 3.59 -7.76 3.47 -7.88 3.43 -8.22 3.3 -8.34 3.26 -8.69 3.13 -8.81 3.09 -9.16 2.97 -9.28 2.93 -9.62 2.8 -9.74 2.76 -10.09 2.63 -10.21 2.59 -10.56 2.47 -10.68 2.42 -11.02 2.3 -11.15 2.26 -11.49 2.13 -11.61 2.09 -11.96 1.96 -12.08 1.92 -12.42 1.8 -12.55 1.76 -12.89 1.63 -13.02 1.59 -13.36 1.46 -13.48 1.42 -13.82 1.3 -13.95 1.25 -14.29 1.13 -14.42 1.09 -14.76 0.96 -14.89 0.92 -15.22 0.79 -15.36 0.75 -15.69 0.63 -15.83 0.59 -16.16 0.46 -16.31 0.42 -16.62 0.29 -16.8 0.25 -17.09 0.12 -17.5 0.08 -17.5 -0.08 -17.09 -0.12 -16.8 -0.25 -16.62 -0.29 -16.31 -0.42 -16.16 -0.46 -15.83 -0.59 -15.69 -0.63 -15.36 -0.75 -15.22 -0.79 -14.89 -0.92 -14.76 -0.96 -14.42 -1.09 -14.29 -1.13 -13.95 -1.25 -13.82 -1.3 -13.48 -1.42 -13.36 -1.46 -13.02 -1.59 -12.89 -1.63 -12.55 -1.76 -12.42 -1.8 -12.08 -1.92 -11.96 -1.96 -11.61 -2.09 -11.49 -2.13 -11.15 -2.26 -11.02 -2.3 -10.68 -2.42 -10.56 -2.47 -10.21 -2.59 -10.09 -2.63 -9.74 -2.76 -9.62 -2.8 -9.28 -2.93 -9.16 -2.97 -8.81 -3.09 -8.69 -3.13 -8.34 -3.26 -8.22 -3.3 -7.88 -3.43 -7.76 -3.47 -7.41 -3.59 -7.29 -3.64 -6.94 -3.76 -6.82 -3.8 -6.48 -3.93 -6.36 -3.97 -6.01 -4.1 -5.89 -4.14 -5.54 -4.26 -5.42 -4.3 -5.08 -4.43 -4.96 -4.47 -4.61 -4.6 -4.49 -4.64 -4.14 -4.76 -4.02 -4.81 -3.67 -4.93 -3.56 -4.97 -3.21 -5.1 -3.09 -5.14 -2.74 -5.27 -2.62 -5.31 -2.27 -5.43 -2.16 -5.48 -1.81 -5.6 -1.69 -5.64 -1.34 -5.77 -1.22 -5.81 -0.87 -5.93 -0.76 -5.98 -0.41 -6.1 -0.29 -6.14 0.06 -6.27 0.18 -6.31 0.53 -6.44 0.64 -6.48 0.99 -6.6 1.11 -6.65 1.46 -6.77 1.58 -6.81 1.93 -6.94 2.04 -6.98 2.39 -7.1 2.51 -7.15 2.86 -7.27 2.98 -7.31 3.33 -7.44 3.44 -7.48 3.79 -7.61 3.91 -7.65 4.26 -7.77 4.38 -7.82 4.73 -7.94 4.85 -7.98 5.19 -8.11 5.31 -8.15 5.66 -8.28 5.78 -8.32 6.13 -8.44 6.25 -8.49 6.6 -8.61 6.71 -8.65 7.06 -8.78 7.18 -8.82 7.53 -8.94 7.65 -8.99 8 -9.11 8.11 -9.15 8.46 -9.28 8.58 -9.32 8.93 -9.45 9.05 -9.49 9.4 -9.61 9.51 -9.66 9.86 -9.78 9.98 -9.82 10.33 -9.95 10.45 -9.99 10.8 -10.11 10.91 -10.16 11.26 -10.28 11.38 -10.32 11.73 -10.45 11.85 -10.49 12.2 -10.62 12.31 -10.66 12.66 -10.78 12.78 -10.83 13.13 -10.95 13.25 -10.99 13.6 -11.12 13.71 -11.16 14.06 -11.28 14.18 -11.33 14.53 -11.45 14.65 -11.5 15 -11.62 15.11 -11.67 15.47 -11.79 15.58 -11.83 15.93 -11.95 16.05 -12.01 16.4 -12.12 16.51 -12.18 16.88 -12.29 16.98 -12.38 17.39 -12.45" class="primitive"/>
          </g>
          <g transform="translate(77.45,16.96)" id="img-4b8d6fae-38" class="color_" stroke="#BECAB9" stroke-dasharray="none">
            <path fill="none" d="M-8.67,-3.15 L -8.36 -2.99 -8.23 -2.96 -7.88 -2.82 -7.76 -2.79 -7.41 -2.65 -7.29 -2.62 -6.95 -2.48 -6.82 -2.45 -6.48 -2.32 -6.36 -2.28 -6.01 -2.15 -5.89 -2.11 -5.54 -1.98 -5.42 -1.94 -5.08 -1.82 -4.96 -1.78 -4.61 -1.65 -4.49 -1.61 -4.14 -1.48 -4.02 -1.44 -3.68 -1.31 -3.56 -1.27 -3.21 -1.15 -3.09 -1.11 -2.74 -0.98 -2.62 -0.94 -2.27 -0.81 -2.16 -0.77 -1.81 -0.65 -1.69 -0.61 -1.34 -0.48 -1.22 -0.44 -0.87 -0.31 -0.76 -0.27 -0.41 -0.14 -0.29 -0.1 0.06 0.02 0.18 0.06 0.53 0.19 0.64 0.23 0.99 0.36 1.11 0.4 1.46 0.52 1.58 0.57 1.93 0.69 2.04 0.73 2.39 0.86 2.51 0.9 2.86 1.03 2.98 1.07 3.33 1.19 3.44 1.23 3.79 1.36 3.91 1.4 4.26 1.53 4.38 1.57 4.73 1.69 4.84 1.74 5.19 1.86 5.31 1.9 5.66 2.03 5.78 2.07 6.13 2.2 6.24 2.24 6.59 2.36 6.71 2.4 7.06 2.53 7.18 2.57 7.53 2.7 7.64 2.74 8 2.86 8.11 2.91 8.46 3.03 8.58 3.07" class="primitive"/>
          </g>
          <g transform="translate(77.45,35.56)" id="img-4b8d6fae-39" class="color_" stroke="#BECAB9" stroke-dasharray="none">
            <path fill="none" d="M-8.67,3.15 L -8.36 2.99 -8.23 2.96 -7.88 2.82 -7.76 2.79 -7.41 2.65 -7.29 2.62 -6.95 2.48 -6.82 2.45 -6.48 2.32 -6.36 2.28 -6.01 2.15 -5.89 2.11 -5.54 1.98 -5.42 1.94 -5.08 1.82 -4.96 1.78 -4.61 1.65 -4.49 1.61 -4.14 1.48 -4.02 1.44 -3.68 1.31 -3.56 1.27 -3.21 1.15 -3.09 1.11 -2.74 0.98 -2.62 0.94 -2.27 0.81 -2.16 0.77 -1.81 0.65 -1.69 0.61 -1.34 0.48 -1.22 0.44 -0.87 0.31 -0.76 0.27 -0.41 0.14 -0.29 0.1 0.06 -0.02 0.18 -0.06 0.53 -0.19 0.64 -0.23 0.99 -0.36 1.11 -0.4 1.46 -0.52 1.58 -0.57 1.93 -0.69 2.04 -0.73 2.39 -0.86 2.51 -0.9 2.86 -1.03 2.98 -1.07 3.33 -1.19 3.44 -1.23 3.79 -1.36 3.91 -1.4 4.26 -1.53 4.38 -1.57 4.73 -1.69 4.84 -1.74 5.19 -1.86 5.31 -1.9 5.66 -2.03 5.78 -2.07 6.13 -2.2 6.24 -2.24 6.59 -2.36 6.71 -2.4 7.06 -2.53 7.18 -2.57 7.53 -2.7 7.64 -2.74 8 -2.86 8.11 -2.91 8.46 -3.03 8.58 -3.07" class="primitive"/>
          </g>
          <g transform="translate(25.06,26.26)" id="img-4b8d6fae-40" class="color_" stroke="#BECAB9" stroke-dasharray="none">
            <path fill="none" d="M-8.58,-6.23 L -8.23 -6.1 -8.11 -6.06 -7.76 -5.93 -7.65 -5.89 -7.3 -5.77 -7.18 -5.73 -6.83 -5.6 -6.71 -5.56 -6.36 -5.43 -6.25 -5.39 -5.9 -5.27 -5.78 -5.22 -5.43 -5.1 -5.31 -5.06 -4.96 -4.93 -4.85 -4.89 -4.49 -4.76 -4.38 -4.72 -4.03 -4.6 -3.91 -4.56 -3.56 -4.43 -3.45 -4.39 -3.09 -4.26 -2.98 -4.22 -2.63 -4.1 -2.51 -4.05 -2.16 -3.93 -2.05 -3.89 -1.69 -3.76 -1.58 -3.72 -1.23 -3.59 -1.11 -3.55 -0.76 -3.43 -0.65 -3.39 -0.29 -3.26 -0.18 -3.22 0.17 -3.09 0.29 -3.05 0.64 -2.93 0.75 -2.88 1.11 -2.76 1.22 -2.72 1.58 -2.59 1.69 -2.55 2.04 -2.42 2.15 -2.38 2.51 -2.26 2.62 -2.21 2.98 -2.09 3.09 -2.05 3.44 -1.92 3.55 -1.88 3.91 -1.76 4.02 -1.71 4.38 -1.59 4.49 -1.55 4.85 -1.42 4.95 -1.38 5.31 -1.25 5.42 -1.21 5.78 -1.09 5.89 -1.04 6.25 -0.92 6.35 -0.88 6.72 -0.75 6.82 -0.71 7.19 -0.59 7.29 -0.54 7.66 -0.42 7.76 -0.37 8.15 -0.25 8.22 -0.2 8.67 -0.08 8.67 0.08 8.22 0.2 8.15 0.25 7.76 0.37 7.66 0.42 7.29 0.54 7.19 0.59 6.82 0.71 6.72 0.75 6.35 0.88 6.25 0.92 5.89 1.04 5.78 1.09 5.42 1.21 5.31 1.25 4.95 1.38 4.85 1.42 4.49 1.55 4.38 1.59 4.02 1.71 3.91 1.76 3.55 1.88 3.44 1.92 3.09 2.05 2.98 2.09 2.62 2.21 2.51 2.26 2.15 2.38 2.04 2.42 1.69 2.55 1.58 2.59 1.22 2.72 1.11 2.76 0.75 2.88 0.64 2.93 0.29 3.05 0.17 3.09 -0.18 3.22 -0.29 3.26 -0.65 3.39 -0.76 3.43 -1.11 3.55 -1.23 3.59 -1.58 3.72 -1.69 3.76 -2.05 3.89 -2.16 3.93 -2.51 4.05 -2.63 4.1 -2.98 4.22 -3.09 4.26 -3.45 4.39 -3.56 4.43 -3.91 4.56 -4.03 4.6 -4.38 4.72 -4.49 4.76 -4.85 4.89 -4.96 4.93 -5.31 5.06 -5.43 5.1 -5.78 5.22 -5.9 5.27 -6.25 5.39 -6.36 5.43 -6.71 5.56 -6.83 5.6 -7.18 5.73 -7.3 5.77 -7.65 5.89 -7.76 5.93 -8.11 6.06 -8.23 6.1 -8.58 6.23" class="primitive"/>
          </g>
          <g transform="translate(40.43,32.43)" id="img-4b8d6fae-41" class="color_" stroke="#C4C9B6" stroke-dasharray="none">
            <path fill="none" d="M20.21,6.29 L 20.2 6.12 20.15 5.95 20.08 5.78 19.97 5.62 19.92 5.55 19.85 5.45 19.69 5.28 19.51 5.12 19.46 5.07 19.31 4.95 19.08 4.78 18.99 4.72 18.84 4.61 18.57 4.45 18.52 4.42 18.29 4.28 18.06 4.15 17.99 4.11 17.68 3.95 17.59 3.9 17.36 3.78 17.12 3.66 17.02 3.61 16.67 3.44 16.66 3.44 16.31 3.28 16.19 3.22 15.94 3.11 15.72 3.02 15.56 2.94 15.26 2.81 15.17 2.78 14.79 2.61 14.78 2.61 14.37 2.44 14.32 2.42 13.97 2.27 13.86 2.23 13.55 2.11 13.39 2.04 13.13 1.94 12.92 1.86 12.7 1.77 12.46 1.68 12.27 1.6 11.99 1.5 11.83 1.44 11.52 1.32 11.39 1.27 11.06 1.15 10.94 1.1 10.59 0.97 10.49 0.94 10.12 0.8 10.03 0.77 9.66 0.63 9.56 0.6 9.19 0.47 9.1 0.43 8.72 0.3 8.62 0.27 8.26 0.14 8.15 0.1 7.79 -0.02 7.66 -0.07 7.32 -0.18 7.17 -0.23 6.86 -0.34 6.68 -0.4 6.39 -0.5 6.18 -0.57 5.92 -0.65 5.67 -0.74 5.46 -0.8 5.15 -0.9 4.99 -0.96 4.63 -1.07 4.52 -1.1 4.09 -1.24 4.06 -1.25 3.59 -1.39 3.55 -1.4 3.12 -1.53 2.99 -1.57 2.66 -1.67 2.42 -1.74 2.19 -1.81 1.84 -1.91 1.72 -1.94 1.26 -2.07 1.23 -2.07 0.79 -2.19 0.59 -2.24 0.32 -2.31 -0.07 -2.41 -0.14 -2.43 -0.61 -2.54 -0.78 -2.57 -1.08 -2.64 -1.55 -2.74 -1.55 -2.74 -2.01 -2.83 -2.42 -2.91 -2.48 -2.92 -2.95 -3 -3.41 -3.07 -3.46 -3.08 -3.88 -3.13 -4.35 -3.19 -4.81 -3.23 -5.01 -3.24 -5.28 -3.26 -5.75 -3.29 -6.21 -3.3 -6.68 -3.3 -7.15 -3.3 -7.61 -3.28 -8.08 -3.25 -8.13 -3.24 -8.55 -3.21 -9.01 -3.16 -9.48 -3.1 -9.66 -3.08 -9.95 -3.04 -10.41 -2.96 -10.7 -2.91 -10.88 -2.88 -11.35 -2.79 -11.57 -2.74 -11.81 -2.69 -12.28 -2.59 -12.35 -2.57 -12.75 -2.48 -13.05 -2.41 -13.21 -2.37 -13.68 -2.25 -13.72 -2.24 -14.15 -2.13 -14.35 -2.07 -14.61 -2 -14.96 -1.91 -15.08 -1.87 -15.55 -1.74 -15.55 -1.74 -16.01 -1.6 -16.12 -1.57 -16.48 -1.46 -16.67 -1.4 -16.95 -1.32 -17.22 -1.24 -17.41 -1.18 -17.75 -1.07 -17.88 -1.03 -18.28 -0.9 -18.35 -0.88 -18.79 -0.74 -18.81 -0.73 -19.28 -0.58 -19.3 -0.57 -19.75 -0.42 -19.8 -0.4 -20.21 -0.26 -20.3 -0.23 -20.68 -0.1 -20.79 -0.07 -21.15 0.06 -21.27 0.1 -21.61 0.22 -21.75 0.27 -22.08 0.38 -22.22 0.43 -22.55 0.55 -22.69 0.6 -23.01 0.72 -23.15 0.77 -23.48 0.89 -23.61 0.94 -23.95 1.06" class="primitive"/>
          </g>
          <g transform="translate(40.43,20.09)" id="img-4b8d6fae-42" class="color_" stroke="#C4C9B6" stroke-dasharray="none">
            <path fill="none" d="M-23.95,-1.06 L -23.61 -0.94 -23.48 -0.89 -23.15 -0.77 -23.01 -0.72 -22.69 -0.6 -22.55 -0.55 -22.22 -0.43 -22.08 -0.38 -21.75 -0.27 -21.61 -0.22 -21.27 -0.1 -21.15 -0.06 -20.79 0.07 -20.68 0.1 -20.3 0.23 -20.21 0.26 -19.8 0.4 -19.75 0.42 -19.3 0.57 -19.28 0.58 -18.81 0.73 -18.79 0.74 -18.35 0.88 -18.28 0.9 -17.88 1.03 -17.75 1.07 -17.41 1.18 -17.22 1.24 -16.95 1.32 -16.67 1.4 -16.48 1.46 -16.12 1.57 -16.01 1.6 -15.55 1.74 -15.55 1.74 -15.08 1.87 -14.96 1.91 -14.61 2 -14.35 2.07 -14.15 2.13 -13.72 2.24 -13.68 2.25 -13.21 2.37 -13.05 2.41 -12.75 2.48 -12.35 2.57 -12.28 2.59 -11.81 2.69 -11.57 2.74 -11.35 2.79 -10.88 2.88 -10.7 2.91 -10.41 2.96 -9.95 3.04 -9.66 3.08 -9.48 3.1 -9.01 3.16 -8.55 3.21 -8.13 3.24 -8.08 3.25 -7.61 3.28 -7.15 3.3 -6.68 3.3 -6.21 3.3 -5.75 3.29 -5.28 3.26 -5.01 3.24 -4.81 3.23 -4.35 3.19 -3.88 3.13 -3.46 3.08 -3.41 3.07 -2.95 3 -2.48 2.92 -2.42 2.91 -2.01 2.83 -1.55 2.74 -1.55 2.74 -1.08 2.64 -0.78 2.57 -0.61 2.54 -0.14 2.43 -0.07 2.41 0.32 2.31 0.59 2.24 0.79 2.19 1.23 2.07 1.26 2.07 1.72 1.94 1.84 1.91 2.19 1.81 2.42 1.74 2.66 1.67 2.99 1.57 3.12 1.53 3.55 1.4 3.59 1.39 4.06 1.25 4.09 1.24 4.52 1.1 4.63 1.07 4.99 0.96 5.15 0.9 5.46 0.8 5.67 0.74 5.92 0.65 6.18 0.57 6.39 0.5 6.68 0.4 6.86 0.34 7.17 0.23 7.32 0.18 7.66 0.07 7.79 0.02 8.15 -0.1 8.26 -0.14 8.62 -0.27 8.72 -0.3 9.1 -0.43 9.19 -0.47 9.56 -0.6 9.66 -0.63 10.03 -0.77 10.12 -0.8 10.49 -0.94 10.59 -0.97 10.94 -1.1 11.06 -1.15 11.39 -1.27 11.52 -1.32 11.83 -1.44 11.99 -1.5 12.27 -1.6 12.46 -1.68 12.7 -1.77 12.92 -1.86 13.13 -1.94 13.39 -2.04 13.55 -2.11 13.86 -2.23 13.97 -2.27 14.32 -2.42 14.37 -2.44 14.78 -2.61 14.79 -2.61 15.17 -2.78 15.26 -2.81 15.56 -2.94 15.72 -3.02 15.94 -3.11 16.19 -3.22 16.31 -3.28 16.66 -3.44 16.67 -3.44 17.02 -3.61 17.12 -3.66 17.36 -3.78 17.59 -3.9 17.68 -3.95 17.99 -4.11 18.06 -4.15 18.29 -4.28 18.52 -4.42 18.57 -4.45 18.84 -4.61 18.99 -4.72 19.08 -4.78 19.31 -4.95 19.46 -5.07 19.51 -5.12 19.69 -5.28 19.85 -5.45 19.92 -5.55 19.97 -5.62 20.08 -5.78 20.15 -5.95 20.2 -6.12 20.21 -6.29" class="primitive"/>
          </g>
          <g transform="translate(80.66,16.65)" id="img-4b8d6fae-43" class="color_" stroke="#C4C9B6" stroke-dasharray="none">
            <path fill="none" d="M-4.03,-2.84 L -4.01 -2.67 -3.98 -2.54 -3.97 -2.51 -3.89 -2.34 -3.79 -2.17 -3.66 -2 -3.51 -1.84 -3.51 -1.84 -3.33 -1.67 -3.13 -1.5 -3.04 -1.44 -2.9 -1.33 -2.65 -1.17 -2.58 -1.12 -2.39 -1 -2.11 -0.83 -2.11 -0.83 -1.81 -0.67 -1.64 -0.58 -1.5 -0.5 -1.18 -0.33 -1.17 -0.33 -0.84 -0.16 -0.71 -0.11 -0.49 0 -0.24 0.11 -0.13 0.17 0.22 0.33 0.25 0.34 0.62 0.5 0.69 0.53 1.01 0.67 1.16 0.73 1.41 0.84 1.63 0.93 1.81 1.01 2.09 1.12 2.22 1.17 2.56 1.31 2.63 1.34 3.03 1.5 3.05 1.51 3.48 1.67 3.49 1.68 3.91 1.84 3.96 1.86 4.35 2.01 4.43 2.04 4.8 2.18 4.89 2.21 5.24 2.34 5.36 2.39" class="primitive"/>
          </g>
          <g transform="translate(80.66,35.88)" id="img-4b8d6fae-44" class="color_" stroke="#C4C9B6" stroke-dasharray="none">
            <path fill="none" d="M5.36,-2.39 L 5.24 -2.34 4.89 -2.21 4.8 -2.18 4.43 -2.04 4.35 -2.01 3.96 -1.86 3.91 -1.84 3.49 -1.68 3.48 -1.67 3.05 -1.51 3.03 -1.5 2.63 -1.34 2.56 -1.31 2.22 -1.17 2.09 -1.12 1.81 -1.01 1.63 -0.93 1.41 -0.84 1.16 -0.73 1.01 -0.67 0.69 -0.53 0.62 -0.5 0.25 -0.34 0.22 -0.33 -0.13 -0.17 -0.24 -0.11 -0.49 -0 -0.71 0.11 -0.84 0.16 -1.17 0.33 -1.18 0.33 -1.5 0.5 -1.64 0.58 -1.81 0.67 -2.11 0.83 -2.11 0.83 -2.39 1 -2.58 1.12 -2.65 1.17 -2.9 1.33 -3.04 1.44 -3.13 1.5 -3.33 1.67 -3.51 1.84 -3.51 1.84 -3.66 2 -3.79 2.17 -3.89 2.34 -3.97 2.51 -3.98 2.54 -4.01 2.67 -4.03 2.84" class="primitive"/>
          </g>
          <g transform="translate(38.58,33.16)" id="img-4b8d6fae-45" class="color_" stroke="#CAC7B4" stroke-dasharray="none">
            <path fill="none" d="M18.47,5.56 L 18.46 5.39 18.42 5.22 18.37 5.06 18.29 4.89 18.19 4.72 18.06 4.55 18.04 4.53 17.92 4.39 17.76 4.22 17.58 4.05 17.57 4.05 17.38 3.89 17.16 3.72 17.11 3.68 16.92 3.55 16.67 3.38 16.64 3.36 16.4 3.22 16.17 3.08 16.12 3.05 15.82 2.88 15.71 2.82 15.51 2.72 15.24 2.57 15.19 2.55 14.85 2.38 14.77 2.34 14.51 2.21 14.31 2.12 14.15 2.05 13.84 1.91 13.78 1.88 13.4 1.71 13.37 1.7 13 1.54 12.91 1.5 12.6 1.38 12.44 1.31 12.19 1.21 11.97 1.12 11.77 1.04 11.5 0.94 11.34 0.88 11.04 0.76 10.9 0.71 10.57 0.59 10.45 0.54 10.1 0.41 9.99 0.37 9.64 0.25 9.52 0.21 9.17 0.08 9.04 0.04 8.7 -0.08 8.55 -0.13 8.24 -0.23 8.05 -0.29 7.77 -0.39 7.54 -0.46 7.3 -0.54 7.01 -0.63 6.84 -0.68 6.47 -0.8 6.37 -0.82 5.91 -0.96 5.9 -0.96 5.44 -1.1 5.33 -1.13 4.97 -1.23 4.73 -1.3 4.5 -1.36 4.1 -1.46 4.04 -1.48 3.57 -1.6 3.45 -1.63 3.1 -1.72 2.75 -1.8 2.64 -1.83 2.17 -1.93 2.01 -1.97 1.7 -2.03 1.24 -2.13 1.2 -2.13 0.77 -2.21 0.3 -2.3 0.28 -2.3 -0.16 -2.37 -0.63 -2.44 -0.8 -2.47 -1.1 -2.51 -1.56 -2.56 -2.03 -2.61 -2.27 -2.63 -2.5 -2.65 -2.96 -2.69 -3.43 -2.72 -3.9 -2.73 -4.36 -2.74 -4.83 -2.75 -5.3 -2.74 -5.76 -2.73 -6.23 -2.7 -6.7 -2.67 -7.16 -2.63 -7.17 -2.63 -7.63 -2.59 -8.1 -2.54 -8.56 -2.48 -8.63 -2.47 -9.03 -2.41 -9.5 -2.34 -9.71 -2.3 -9.96 -2.26 -10.43 -2.17 -10.62 -2.13 -10.9 -2.08 -11.37 -1.98 -11.44 -1.97 -11.83 -1.88 -12.18 -1.8 -12.3 -1.77 -12.77 -1.66 -12.87 -1.63 -13.23 -1.54 -13.53 -1.46 -13.7 -1.42 -14.16 -1.3 -14.17 -1.3 -14.63 -1.17 -14.76 -1.13 -15.1 -1.03 -15.33 -0.96 -15.57 -0.89 -15.89 -0.8 -16.03 -0.75 -16.44 -0.63 -16.5 -0.61 -16.97 -0.46 -16.97 -0.46 -17.43 -0.31 -17.48 -0.29 -17.9 -0.15 -17.98 -0.13 -18.37 0 -18.47 0.04 -18.83 0.17 -18.95 0.21 -19.3 0.33 -19.42 0.37 -19.77 0.5 -19.88 0.54 -20.23 0.67 -20.33 0.71 -20.7 0.85 -20.77 0.88 -21.17 1.03 -21.2 1.04 -21.62 1.21 -21.63 1.22 -22.03 1.38 -22.1 1.41" class="primitive"/>
          </g>
          <g transform="translate(38.58,19.36)" id="img-4b8d6fae-46" class="color_" stroke="#CAC7B4" stroke-dasharray="none">
            <path fill="none" d="M-22.1,-1.41 L -22.03 -1.38 -21.63 -1.22 -21.62 -1.21 -21.2 -1.04 -21.17 -1.03 -20.77 -0.88 -20.7 -0.85 -20.33 -0.71 -20.23 -0.67 -19.88 -0.54 -19.77 -0.5 -19.42 -0.37 -19.3 -0.33 -18.95 -0.21 -18.83 -0.17 -18.47 -0.04 -18.37 -0 -17.98 0.13 -17.9 0.15 -17.48 0.29 -17.43 0.31 -16.97 0.46 -16.97 0.46 -16.5 0.61 -16.44 0.63 -16.03 0.75 -15.89 0.8 -15.57 0.89 -15.33 0.96 -15.1 1.03 -14.76 1.13 -14.63 1.17 -14.17 1.3 -14.16 1.3 -13.7 1.42 -13.53 1.46 -13.23 1.54 -12.87 1.63 -12.77 1.66 -12.3 1.77 -12.18 1.8 -11.83 1.88 -11.44 1.97 -11.37 1.98 -10.9 2.08 -10.62 2.13 -10.43 2.17 -9.96 2.26 -9.71 2.3 -9.5 2.34 -9.03 2.41 -8.63 2.47 -8.56 2.48 -8.1 2.54 -7.63 2.59 -7.17 2.63 -7.16 2.63 -6.7 2.67 -6.23 2.7 -5.76 2.73 -5.3 2.74 -4.83 2.75 -4.36 2.74 -3.9 2.73 -3.43 2.72 -2.96 2.69 -2.5 2.65 -2.27 2.63 -2.03 2.61 -1.56 2.56 -1.1 2.51 -0.8 2.47 -0.63 2.44 -0.16 2.37 0.28 2.3 0.3 2.3 0.77 2.21 1.2 2.13 1.24 2.13 1.7 2.03 2.01 1.97 2.17 1.93 2.64 1.83 2.75 1.8 3.1 1.72 3.45 1.63 3.57 1.6 4.04 1.48 4.1 1.46 4.5 1.36 4.73 1.3 4.97 1.23 5.33 1.13 5.44 1.1 5.9 0.96 5.91 0.96 6.37 0.82 6.47 0.8 6.84 0.68 7.01 0.63 7.3 0.54 7.54 0.46 7.77 0.39 8.05 0.29 8.24 0.23 8.55 0.13 8.7 0.08 9.04 -0.04 9.17 -0.08 9.52 -0.21 9.64 -0.25 9.99 -0.37 10.1 -0.41 10.45 -0.54 10.57 -0.59 10.9 -0.71 11.04 -0.76 11.34 -0.88 11.5 -0.94 11.77 -1.04 11.97 -1.12 12.19 -1.21 12.44 -1.31 12.6 -1.38 12.91 -1.5 13 -1.54 13.37 -1.7 13.4 -1.71 13.78 -1.88 13.84 -1.91 14.15 -2.05 14.31 -2.12 14.51 -2.21 14.77 -2.34 14.85 -2.38 15.19 -2.55 15.24 -2.57 15.51 -2.72 15.71 -2.82 15.82 -2.88 16.12 -3.05 16.17 -3.08 16.4 -3.22 16.64 -3.36 16.67 -3.38 16.92 -3.55 17.11 -3.68 17.16 -3.72 17.38 -3.89 17.57 -4.05 17.58 -4.05 17.76 -4.22 17.92 -4.39 18.04 -4.53 18.06 -4.55 18.19 -4.72 18.29 -4.89 18.37 -5.06 18.42 -5.22 18.46 -5.39 18.47 -5.56" class="primitive"/>
          </g>
          <g transform="translate(82.55,36.46)" id="img-4b8d6fae-47" class="color_" stroke="#CAC7B4" stroke-dasharray="none">
            <path fill="none" d="M-2.32,2.25 L -2.31 2.08 -2.28 1.92 -2.22 1.75 -2.14 1.58 -2.13 1.56 -2.04 1.41 -1.92 1.25 -1.78 1.08 -1.66 0.96 -1.61 0.91 -1.43 0.75 -1.23 0.58 -1.19 0.55 -1.01 0.41 -0.78 0.24 -0.73 0.21 -0.53 0.08 -0.26 -0.09 -0.26 -0.09 0.02 -0.26 0.21 -0.36 0.32 -0.42 0.63 -0.59 0.67 -0.61 0.96 -0.76 1.14 -0.85 1.29 -0.93 1.61 -1.08 1.64 -1.09 2 -1.26 2.07 -1.29 2.37 -1.43 2.54 -1.5 2.75 -1.59 3.01 -1.7 3.14 -1.76 3.47 -1.9" class="primitive"/>
          </g>
          <g transform="translate(82.55,16.06)" id="img-4b8d6fae-48" class="color_" stroke="#CAC7B4" stroke-dasharray="none">
            <path fill="none" d="M-2.32,-2.25 L -2.31 -2.08 -2.28 -1.92 -2.22 -1.75 -2.14 -1.58 -2.13 -1.56 -2.04 -1.41 -1.92 -1.25 -1.78 -1.08 -1.66 -0.96 -1.61 -0.91 -1.43 -0.75 -1.23 -0.58 -1.19 -0.55 -1.01 -0.41 -0.78 -0.24 -0.73 -0.21 -0.53 -0.08 -0.26 0.09 -0.26 0.09 0.02 0.26 0.21 0.36 0.32 0.42 0.63 0.59 0.67 0.61 0.96 0.76 1.14 0.85 1.29 0.93 1.61 1.08 1.64 1.09 2 1.26 2.07 1.29 2.37 1.43 2.54 1.5 2.75 1.59 3.01 1.7 3.14 1.76 3.47 1.9" class="primitive"/>
          </g>
          <g transform="translate(84.36,15.39)" id="img-4b8d6fae-49" class="color_" stroke="#D3C5AB" stroke-dasharray="none">
            <path fill="none" d="M-1.13,-1.59 L -1.12 -1.42 -1.09 -1.25 -1.04 -1.09 -0.97 -0.92 -0.88 -0.75 -0.77 -0.58 -0.67 -0.46 -0.64 -0.42 -0.49 -0.25 -0.33 -0.08 -0.2 0.03 -0.14 0.08 0.06 0.25 0.26 0.41 0.28 0.42 0.52 0.59 0.73 0.73 0.77 0.75 1.04 0.92 1.2 1.01 1.32 1.09 1.62 1.25 1.66 1.28" class="primitive"/>
          </g>
          <g transform="translate(36.84,18.65)" id="img-4b8d6fae-50" class="color_" stroke="#D3C5AB" stroke-dasharray="none">
            <path fill="none" d="M17.2,-4.84 L 17.19 -4.67 17.16 -4.51 17.11 -4.34 17.04 -4.17 16.97 -4.05 16.95 -4 16.84 -3.84 16.71 -3.67 16.56 -3.5 16.51 -3.45 16.4 -3.34 16.21 -3.17 16.04 -3.03 16.01 -3 15.79 -2.83 15.57 -2.68 15.55 -2.67 15.3 -2.5 15.11 -2.38 15.03 -2.33 14.75 -2.17 14.64 -2.11 14.45 -2 14.17 -1.85 14.14 -1.83 13.81 -1.66 13.71 -1.62 13.46 -1.5 13.24 -1.39 13.11 -1.33 12.77 -1.18 12.74 -1.16 12.35 -1 12.31 -0.98 11.95 -0.83 11.84 -0.78 11.54 -0.66 11.37 -0.6 11.11 -0.49 10.91 -0.42 10.67 -0.33 10.44 -0.24 10.21 -0.16 9.97 -0.07 9.74 0.01 9.51 0.09 9.25 0.17 9.04 0.25 8.74 0.34 8.57 0.4 8.22 0.51 8.11 0.54 7.67 0.68 7.64 0.69 7.17 0.82 7.1 0.84 6.71 0.95 6.5 1.01 6.24 1.08 5.86 1.18 5.77 1.2 5.31 1.32 5.19 1.34 4.84 1.43 4.47 1.51 4.37 1.53 3.91 1.64 3.69 1.68 3.44 1.73 2.97 1.82 2.82 1.85 2.51 1.9 2.04 1.98 1.81 2.01 1.57 2.05 1.1 2.11 0.64 2.17 0.57 2.18 0.17 2.22 -0.3 2.27 -0.76 2.31 -1.23 2.34 -1.44 2.35 -1.7 2.36 -2.16 2.38 -2.63 2.39 -3.1 2.39 -3.56 2.38 -4.03 2.37 -4.5 2.35 -4.53 2.35 -4.96 2.32 -5.43 2.29 -5.9 2.25 -6.36 2.2 -6.52 2.18 -6.83 2.14 -7.3 2.08 -7.76 2.02 -7.78 2.01 -8.23 1.94 -8.7 1.86 -8.78 1.85 -9.16 1.78 -9.63 1.68 -9.65 1.68 -10.1 1.59 -10.43 1.51 -10.56 1.48 -11.03 1.37 -11.15 1.34 -11.5 1.26 -11.82 1.18 -11.96 1.14 -12.43 1.02 -12.46 1.01 -12.9 0.89 -13.05 0.84 -13.36 0.75 -13.63 0.68 -13.83 0.61 -14.18 0.51 -14.3 0.47 -14.7 0.34 -14.76 0.32 -15.21 0.17 -15.23 0.17 -15.7 0.01 -15.7 0.01 -16.16 -0.16 -16.17 -0.16 -16.63 -0.33 -16.63 -0.33 -17.07 -0.49 -17.1 -0.5 -17.5 -0.66 -17.56 -0.69 -17.91 -0.83 -18.03 -0.88 -18.31 -1 -18.5 -1.08 -18.69 -1.16 -18.96 -1.28 -19.06 -1.33 -19.42 -1.5 -19.43 -1.5 -19.76 -1.66 -19.9 -1.73 -20.09 -1.83 -20.37 -1.98" class="primitive"/>
          </g>
          <g transform="translate(36.84,33.87)" id="img-4b8d6fae-51" class="color_" stroke="#D3C5AB" stroke-dasharray="none">
            <path fill="none" d="M17.2,4.84 L 17.19 4.67 17.16 4.51 17.11 4.34 17.04 4.17 16.97 4.05 16.95 4 16.84 3.84 16.71 3.67 16.56 3.5 16.51 3.45 16.4 3.34 16.21 3.17 16.04 3.03 16.01 3 15.79 2.83 15.57 2.68 15.55 2.67 15.3 2.5 15.11 2.38 15.03 2.33 14.75 2.17 14.64 2.11 14.45 2 14.17 1.85 14.14 1.83 13.81 1.66 13.71 1.62 13.46 1.5 13.24 1.39 13.11 1.33 12.77 1.18 12.74 1.16 12.35 1 12.31 0.98 11.95 0.83 11.84 0.78 11.54 0.66 11.37 0.6 11.11 0.49 10.91 0.42 10.67 0.33 10.44 0.24 10.21 0.16 9.97 0.07 9.74 -0.01 9.51 -0.09 9.25 -0.17 9.04 -0.25 8.74 -0.34 8.57 -0.4 8.22 -0.51 8.11 -0.54 7.67 -0.68 7.64 -0.69 7.17 -0.82 7.1 -0.84 6.71 -0.95 6.5 -1.01 6.24 -1.08 5.86 -1.18 5.77 -1.2 5.31 -1.32 5.19 -1.34 4.84 -1.43 4.47 -1.51 4.37 -1.53 3.91 -1.64 3.69 -1.68 3.44 -1.73 2.97 -1.82 2.82 -1.85 2.51 -1.9 2.04 -1.98 1.81 -2.01 1.57 -2.05 1.1 -2.11 0.64 -2.17 0.57 -2.18 0.17 -2.22 -0.3 -2.27 -0.76 -2.31 -1.23 -2.34 -1.44 -2.35 -1.7 -2.36 -2.16 -2.38 -2.63 -2.39 -3.1 -2.39 -3.56 -2.38 -4.03 -2.37 -4.5 -2.35 -4.53 -2.35 -4.96 -2.32 -5.43 -2.29 -5.9 -2.25 -6.36 -2.2 -6.52 -2.18 -6.83 -2.14 -7.3 -2.08 -7.76 -2.02 -7.78 -2.01 -8.23 -1.94 -8.7 -1.86 -8.78 -1.85 -9.16 -1.78 -9.63 -1.68 -9.65 -1.68 -10.1 -1.59 -10.43 -1.51 -10.56 -1.48 -11.03 -1.37 -11.15 -1.34 -11.5 -1.26 -11.82 -1.18 -11.96 -1.14 -12.43 -1.02 -12.46 -1.01 -12.9 -0.89 -13.05 -0.84 -13.36 -0.75 -13.63 -0.68 -13.83 -0.61 -14.18 -0.51 -14.3 -0.47 -14.7 -0.34 -14.76 -0.32 -15.21 -0.17 -15.23 -0.17 -15.7 -0.01 -15.7 -0.01 -16.16 0.16 -16.17 0.16 -16.63 0.33 -16.63 0.33 -17.07 0.49 -17.1 0.5 -17.5 0.66 -17.56 0.69 -17.91 0.83 -18.03 0.88 -18.31 1 -18.5 1.08 -18.69 1.16 -18.96 1.28 -19.06 1.33 -19.42 1.5 -19.43 1.5 -19.76 1.66 -19.9 1.73 -20.09 1.83 -20.37 1.98" class="primitive"/>
          </g>
          <g transform="translate(84.36,37.13)" id="img-4b8d6fae-52" class="color_" stroke="#D3C5AB" stroke-dasharray="none">
            <path fill="none" d="M1.66,-1.28 L 1.62 -1.25 1.32 -1.09 1.2 -1.01 1.04 -0.92 0.77 -0.75 0.73 -0.73 0.52 -0.59 0.28 -0.42 0.26 -0.41 0.06 -0.25 -0.14 -0.08 -0.2 -0.03 -0.33 0.08 -0.49 0.25 -0.64 0.42 -0.67 0.46 -0.77 0.58 -0.88 0.75 -0.97 0.92 -1.04 1.09 -1.09 1.25 -1.12 1.42 -1.13 1.59" class="primitive"/>
          </g>
          <g transform="translate(33.92,17.66)" id="img-4b8d6fae-53" class="color_" stroke="#D2B497" stroke-dasharray="none">
            <path fill="none" d="M-17.44,-3.85 L -17.43 -3.68 -17.4 -3.52 -17.35 -3.35 -17.29 -3.18 -17.2 -3.02 -17.09 -2.85 -16.98 -2.7 -16.96 -2.68 -16.82 -2.51 -16.65 -2.35 -16.51 -2.21 -16.47 -2.18 -16.27 -2.01 -16.05 -1.85 -16.04 -1.84 -15.82 -1.68 -15.58 -1.52 -15.56 -1.51 -15.29 -1.34 -15.11 -1.24 -15 -1.18 -14.69 -1.01 -14.64 -0.99 -14.36 -0.84 -14.18 -0.75 -14.02 -0.68 -13.71 -0.53 -13.66 -0.51 -13.28 -0.34 -13.24 -0.32 -12.88 -0.17 -12.78 -0.13 -12.47 -0.01 -12.31 0.05 -12.03 0.16 -11.84 0.23 -11.57 0.33 -11.38 0.4 -11.09 0.49 -10.91 0.55 -10.58 0.66 -10.44 0.71 -10.04 0.83 -9.98 0.85 -9.51 0.99 -9.48 1 -9.04 1.12 -8.87 1.16 -8.58 1.24 -8.23 1.33 -8.11 1.36 -7.64 1.47 -7.53 1.5 -7.18 1.58 -6.77 1.67 -6.71 1.68 -6.24 1.77 -5.91 1.83 -5.78 1.86 -5.31 1.94 -4.91 2 -4.84 2.01 -4.37 2.08 -3.91 2.14 -3.66 2.17 -3.44 2.19 -2.97 2.24 -2.51 2.28 -2.04 2.31 -1.65 2.33 -1.57 2.34 -1.11 2.36 -0.64 2.37 -0.17 2.38 0.29 2.37 0.76 2.36 1.23 2.35 1.53 2.33 1.69 2.33 2.16 2.3 2.63 2.26 3.09 2.22 3.55 2.17 3.56 2.17 4.03 2.11 4.49 2.04 4.79 2 4.96 1.97 5.43 1.9 5.79 1.83 5.89 1.81 6.36 1.72 6.65 1.67 6.83 1.63 7.29 1.53 7.42 1.5 7.76 1.42 8.11 1.33 8.23 1.3 8.69 1.18 8.76 1.16 9.16 1.05 9.36 1 9.63 0.92 9.93 0.83 10.09 0.78 10.46 0.66 10.56 0.63 10.97 0.49 11.03 0.48 11.45 0.33 11.49 0.31 11.91 0.16 11.96 0.14 12.35 -0.01 12.43 -0.04 12.77 -0.17 12.89 -0.23 13.17 -0.34 13.36 -0.43 13.55 -0.51 13.83 -0.64 13.91 -0.68 14.25 -0.84 14.29 -0.87 14.57 -1.01 14.76 -1.11 14.88 -1.18 15.17 -1.34 15.23 -1.38 15.45 -1.51 15.69 -1.67 15.7 -1.68 15.94 -1.85 16.16 -2.01 16.16 -2.02 16.36 -2.18 16.54 -2.35 16.63 -2.44 16.7 -2.51 16.85 -2.68 16.98 -2.85 17.08 -3.02 17.1 -3.04 17.17 -3.18 17.24 -3.35 17.29 -3.52 17.32 -3.68 17.33 -3.85" class="primitive"/>
          </g>
          <g transform="translate(33.92,34.86)" id="img-4b8d6fae-54" class="color_" stroke="#D2B497" stroke-dasharray="none">
            <path fill="none" d="M-17.44,3.85 L -17.43 3.68 -17.4 3.52 -17.35 3.35 -17.29 3.18 -17.2 3.02 -17.09 2.85 -16.98 2.7 -16.96 2.68 -16.82 2.51 -16.65 2.35 -16.51 2.21 -16.47 2.18 -16.27 2.01 -16.05 1.85 -16.04 1.84 -15.82 1.68 -15.58 1.52 -15.56 1.51 -15.29 1.34 -15.11 1.24 -15 1.18 -14.69 1.01 -14.64 0.99 -14.36 0.84 -14.18 0.75 -14.02 0.68 -13.71 0.53 -13.66 0.51 -13.28 0.34 -13.24 0.32 -12.88 0.17 -12.78 0.13 -12.47 0.01 -12.31 -0.05 -12.03 -0.16 -11.84 -0.23 -11.57 -0.33 -11.38 -0.4 -11.09 -0.49 -10.91 -0.55 -10.58 -0.66 -10.44 -0.71 -10.04 -0.83 -9.98 -0.85 -9.51 -0.99 -9.48 -1 -9.04 -1.12 -8.87 -1.16 -8.58 -1.24 -8.23 -1.33 -8.11 -1.36 -7.64 -1.47 -7.53 -1.5 -7.18 -1.58 -6.77 -1.67 -6.71 -1.68 -6.24 -1.77 -5.91 -1.83 -5.78 -1.86 -5.31 -1.94 -4.91 -2 -4.84 -2.01 -4.37 -2.08 -3.91 -2.14 -3.66 -2.17 -3.44 -2.19 -2.97 -2.24 -2.51 -2.28 -2.04 -2.31 -1.65 -2.33 -1.57 -2.34 -1.11 -2.36 -0.64 -2.37 -0.17 -2.38 0.29 -2.37 0.76 -2.36 1.23 -2.35 1.53 -2.33 1.69 -2.33 2.16 -2.3 2.63 -2.26 3.09 -2.22 3.55 -2.17 3.56 -2.17 4.03 -2.11 4.49 -2.04 4.79 -2 4.96 -1.97 5.43 -1.9 5.79 -1.83 5.89 -1.81 6.36 -1.72 6.65 -1.67 6.83 -1.63 7.29 -1.53 7.42 -1.5 7.76 -1.42 8.11 -1.33 8.23 -1.3 8.69 -1.18 8.76 -1.16 9.16 -1.05 9.36 -1 9.63 -0.92 9.93 -0.83 10.09 -0.78 10.46 -0.66 10.56 -0.63 10.97 -0.49 11.03 -0.48 11.45 -0.33 11.49 -0.31 11.91 -0.16 11.96 -0.14 12.35 0.01 12.43 0.04 12.77 0.17 12.89 0.23 13.17 0.34 13.36 0.43 13.55 0.51 13.83 0.64 13.91 0.68 14.25 0.84 14.29 0.87 14.57 1.01 14.76 1.11 14.88 1.18 15.17 1.34 15.23 1.38 15.45 1.51 15.69 1.67 15.7 1.68 15.94 1.85 16.16 2.01 16.16 2.02 16.36 2.18 16.54 2.35 16.63 2.44 16.7 2.51 16.85 2.68 16.98 2.85 17.08 3.02 17.1 3.04 17.17 3.18 17.24 3.35 17.29 3.52 17.32 3.68 17.33 3.85" class="primitive"/>
          </g>
          <g transform="translate(33.81,35.47)" id="img-4b8d6fae-55" class="color_" stroke="#C3957A" stroke-dasharray="none">
            <path fill="none" d="M-14.53,3.24 L -14.53 3.18 -14.52 3.08 -14.49 2.91 -14.44 2.74 -14.37 2.58 -14.28 2.41 -14.17 2.24 -14.06 2.11 -14.03 2.07 -13.88 1.91 -13.71 1.74 -13.59 1.64 -13.52 1.57 -13.3 1.41 -13.13 1.28 -13.07 1.24 -12.81 1.07 -12.66 0.98 -12.54 0.9 -12.24 0.74 -12.19 0.71 -11.92 0.57 -11.73 0.47 -11.58 0.4 -11.26 0.26 -11.22 0.24 -10.83 0.07 -10.79 0.05 -10.41 -0.1 -10.33 -0.13 -9.97 -0.27 -9.86 -0.3 -9.49 -0.43 -9.39 -0.47 -8.98 -0.6 -8.93 -0.62 -8.46 -0.76 -8.43 -0.77 -7.99 -0.89 -7.84 -0.93 -7.53 -1.02 -7.19 -1.1 -7.06 -1.13 -6.59 -1.24 -6.47 -1.27 -6.13 -1.34 -5.66 -1.44 -5.65 -1.44 -5.19 -1.52 -4.73 -1.6 -4.7 -1.6 -4.26 -1.67 -3.79 -1.73 -3.48 -1.77 -3.33 -1.79 -2.86 -1.84 -2.39 -1.88 -1.93 -1.92 -1.54 -1.94 -1.46 -1.94 -0.99 -1.96 -0.53 -1.98 -0.06 -1.98 0.41 -1.98 0.87 -1.97 1.34 -1.95 1.65 -1.94 1.81 -1.93 2.28 -1.9 2.74 -1.86 3.21 -1.82 3.6 -1.77 3.68 -1.76 4.14 -1.7 4.61 -1.64 4.81 -1.6 5.08 -1.56 5.54 -1.48 5.77 -1.44 6.01 -1.39 6.48 -1.29 6.58 -1.27 6.94 -1.19 7.3 -1.1 7.41 -1.08 7.88 -0.96 7.95 -0.93 8.34 -0.83 8.55 -0.77 8.81 -0.69 9.1 -0.6 9.28 -0.54 9.61 -0.43 9.74 -0.39 10.08 -0.27 10.21 -0.22 10.53 -0.1 10.68 -0.04 10.94 0.07 11.14 0.15 11.33 0.24 11.61 0.36 11.7 0.4 12.04 0.57 12.08 0.59 12.36 0.74 12.54 0.84 12.65 0.9 12.93 1.07 13.01 1.12 13.18 1.24 13.42 1.41 13.48 1.45 13.63 1.57 13.82 1.74 13.94 1.85 14 1.91 14.15 2.07 14.28 2.24 14.39 2.41 14.41 2.44 14.48 2.58 14.56 2.74 14.61 2.91 14.64 3.08 14.65 3.24" class="primitive"/>
          </g>
          <g transform="translate(33.81,17.05)" id="img-4b8d6fae-56" class="color_" stroke="#C3957A" stroke-dasharray="none">
            <path fill="none" d="M14.65,-3.24 L 14.64 -3.08 14.61 -2.91 14.56 -2.74 14.48 -2.58 14.41 -2.44 14.39 -2.41 14.28 -2.24 14.15 -2.07 14 -1.91 13.94 -1.85 13.82 -1.74 13.63 -1.57 13.48 -1.45 13.42 -1.41 13.18 -1.24 13.01 -1.12 12.93 -1.07 12.65 -0.9 12.54 -0.84 12.36 -0.74 12.08 -0.59 12.04 -0.57 11.7 -0.4 11.61 -0.36 11.33 -0.24 11.14 -0.15 10.94 -0.07 10.68 0.04 10.53 0.1 10.21 0.22 10.08 0.27 9.74 0.39 9.61 0.43 9.28 0.54 9.1 0.6 8.81 0.69 8.55 0.77 8.34 0.83 7.95 0.93 7.88 0.96 7.41 1.08 7.3 1.1 6.94 1.19 6.58 1.27 6.48 1.29 6.01 1.39 5.77 1.44 5.54 1.48 5.08 1.56 4.81 1.6 4.61 1.64 4.14 1.7 3.68 1.76 3.6 1.77 3.21 1.82 2.74 1.86 2.28 1.9 1.81 1.93 1.65 1.94 1.34 1.95 0.87 1.97 0.41 1.98 -0.06 1.98 -0.53 1.98 -0.99 1.96 -1.46 1.94 -1.54 1.94 -1.93 1.92 -2.39 1.88 -2.86 1.84 -3.33 1.79 -3.48 1.77 -3.79 1.73 -4.26 1.67 -4.7 1.6 -4.73 1.6 -5.19 1.52 -5.65 1.44 -5.66 1.44 -6.13 1.34 -6.47 1.27 -6.59 1.24 -7.06 1.13 -7.19 1.1 -7.53 1.02 -7.84 0.93 -7.99 0.89 -8.43 0.77 -8.46 0.76 -8.93 0.62 -8.98 0.6 -9.39 0.47 -9.49 0.43 -9.86 0.3 -9.97 0.27 -10.33 0.13 -10.41 0.1 -10.79 -0.05 -10.83 -0.07 -11.22 -0.24 -11.26 -0.26 -11.58 -0.4 -11.73 -0.47 -11.92 -0.57 -12.19 -0.71 -12.24 -0.74 -12.54 -0.9 -12.66 -0.98 -12.81 -1.07 -13.07 -1.24 -13.13 -1.28 -13.3 -1.41 -13.52 -1.57 -13.59 -1.64 -13.71 -1.74 -13.88 -1.91 -14.03 -2.07 -14.06 -2.11 -14.17 -2.24 -14.28 -2.41 -14.37 -2.58 -14.44 -2.74 -14.49 -2.91 -14.52 -3.08 -14.53 -3.18 -14.53 -3.24" class="primitive"/>
          </g>
          <g transform="translate(33.92,16.39)" id="img-4b8d6fae-57" class="color_" stroke="#B17361" stroke-dasharray="none">
            <path fill="none" d="M-11.65,-2.58 L -11.64 -2.42 -11.6 -2.25 -11.55 -2.08 -11.47 -1.91 -11.38 -1.77 -11.36 -1.75 -11.24 -1.58 -11.09 -1.41 -10.91 -1.25 -10.91 -1.24 -10.71 -1.08 -10.49 -0.91 -10.44 -0.88 -10.24 -0.74 -9.98 -0.58 -9.97 -0.58 -9.66 -0.41 -9.51 -0.33 -9.33 -0.24 -9.04 -0.11 -8.96 -0.08 -8.58 0.09 -8.56 0.09 -8.12 0.26 -8.11 0.26 -7.64 0.42 -7.64 0.43 -7.18 0.57 -7.1 0.59 -6.71 0.7 -6.5 0.76 -6.24 0.83 -5.83 0.93 -5.78 0.94 -5.31 1.04 -5.04 1.09 -4.84 1.13 -4.38 1.21 -4.08 1.26 -3.91 1.29 -3.44 1.35 -2.98 1.41 -2.77 1.43 -2.51 1.46 -2.04 1.49 -1.58 1.52 -1.11 1.55 -0.64 1.56 -0.18 1.57 0.29 1.57 0.76 1.56 1.23 1.54 1.69 1.51 2.16 1.48 2.63 1.43 2.66 1.43 3.09 1.38 3.56 1.32 3.96 1.26 4.03 1.25 4.49 1.17 4.92 1.09 4.96 1.09 5.43 0.99 5.71 0.93 5.89 0.88 6.36 0.77 6.39 0.76 6.83 0.64 6.98 0.59 7.29 0.5 7.52 0.43 7.76 0.34 8 0.26 8.23 0.18 8.44 0.09 8.69 -0.01 8.84 -0.08 9.16 -0.22 9.21 -0.24 9.55 -0.41 9.63 -0.45 9.85 -0.58 10.09 -0.72 10.13 -0.74 10.37 -0.91 10.56 -1.05 10.6 -1.08 10.8 -1.25 10.97 -1.41 11.03 -1.47 11.12 -1.58 11.25 -1.75 11.35 -1.91 11.43 -2.08 11.49 -2.25 11.49 -2.28 11.52 -2.42 11.53 -2.58" class="primitive"/>
          </g>
          <g transform="translate(33.92,36.13)" id="img-4b8d6fae-58" class="color_" stroke="#B17361" stroke-dasharray="none">
            <path fill="none" d="M-11.65,2.58 L -11.64 2.42 -11.6 2.25 -11.55 2.08 -11.47 1.91 -11.38 1.77 -11.36 1.75 -11.24 1.58 -11.09 1.41 -10.91 1.25 -10.91 1.24 -10.71 1.08 -10.49 0.91 -10.44 0.88 -10.24 0.74 -9.98 0.58 -9.97 0.58 -9.66 0.41 -9.51 0.33 -9.33 0.24 -9.04 0.11 -8.96 0.08 -8.58 -0.09 -8.56 -0.09 -8.12 -0.26 -8.11 -0.26 -7.64 -0.42 -7.64 -0.43 -7.18 -0.57 -7.1 -0.59 -6.71 -0.7 -6.5 -0.76 -6.24 -0.83 -5.83 -0.93 -5.78 -0.94 -5.31 -1.04 -5.04 -1.09 -4.84 -1.13 -4.38 -1.21 -4.08 -1.26 -3.91 -1.29 -3.44 -1.35 -2.98 -1.41 -2.77 -1.43 -2.51 -1.46 -2.04 -1.49 -1.58 -1.52 -1.11 -1.55 -0.64 -1.56 -0.18 -1.57 0.29 -1.57 0.76 -1.56 1.23 -1.54 1.69 -1.51 2.16 -1.48 2.63 -1.43 2.66 -1.43 3.09 -1.38 3.56 -1.32 3.96 -1.26 4.03 -1.25 4.49 -1.17 4.92 -1.09 4.96 -1.09 5.43 -0.99 5.71 -0.93 5.89 -0.88 6.36 -0.77 6.39 -0.76 6.83 -0.64 6.98 -0.59 7.29 -0.5 7.52 -0.43 7.76 -0.34 8 -0.26 8.23 -0.18 8.44 -0.09 8.69 0.01 8.84 0.08 9.16 0.22 9.21 0.24 9.55 0.41 9.63 0.45 9.85 0.58 10.09 0.72 10.13 0.74 10.37 0.91 10.56 1.05 10.6 1.08 10.8 1.25 10.97 1.41 11.03 1.47 11.12 1.58 11.25 1.75 11.35 1.91 11.43 2.08 11.49 2.25 11.49 2.28 11.52 2.42 11.53 2.58" class="primitive"/>
          </g>
          <g transform="translate(33.92,36.9)" id="img-4b8d6fae-59" class="color_" stroke="#9B4E4D" stroke-dasharray="none">
            <path fill="none" d="M7.94,1.82 L 7.93 1.65 7.88 1.49 7.81 1.32 7.76 1.24 7.7 1.15 7.56 0.98 7.39 0.82 7.29 0.73 7.19 0.65 6.95 0.48 6.83 0.41 6.66 0.31 6.36 0.16 6.34 0.15 5.96 -0.02 5.89 -0.05 5.53 -0.19 5.43 -0.22 5.02 -0.35 4.96 -0.37 4.49 -0.5 4.42 -0.52 4.03 -0.61 3.68 -0.69 3.56 -0.71 3.09 -0.79 2.7 -0.86 2.63 -0.87 2.16 -0.92 1.69 -0.97 1.23 -1.01 0.9 -1.02 0.76 -1.03 0.29 -1.04 -0.17 -1.05 -0.64 -1.04 -1.02 -1.02 -1.11 -1.02 -1.57 -0.99 -2.04 -0.95 -2.51 -0.9 -2.81 -0.86 -2.97 -0.83 -3.44 -0.75 -3.79 -0.69 -3.91 -0.67 -4.37 -0.56 -4.53 -0.52 -4.84 -0.44 -5.13 -0.35 -5.31 -0.3 -5.64 -0.19 -5.77 -0.14 -6.07 -0.02 -6.24 0.05 -6.45 0.15 -6.71 0.28 -6.78 0.31 -7.06 0.48 -7.17 0.56 -7.3 0.65 -7.51 0.82 -7.64 0.95 -7.68 0.98 -7.81 1.15 -7.92 1.32 -7.99 1.49 -8.04 1.65 -8.06 1.82" class="primitive"/>
          </g>
          <g transform="translate(33.92,15.63)" id="img-4b8d6fae-60" class="color_" stroke="#9B4E4D" stroke-dasharray="none">
            <path fill="none" d="M-8.06,-1.82 L -8.04 -1.65 -7.99 -1.49 -7.92 -1.32 -7.81 -1.15 -7.68 -0.98 -7.64 -0.95 -7.51 -0.82 -7.3 -0.65 -7.17 -0.56 -7.06 -0.48 -6.78 -0.31 -6.71 -0.28 -6.45 -0.15 -6.24 -0.05 -6.07 0.02 -5.77 0.14 -5.64 0.19 -5.31 0.3 -5.13 0.35 -4.84 0.44 -4.53 0.52 -4.37 0.56 -3.91 0.67 -3.79 0.69 -3.44 0.75 -2.97 0.83 -2.81 0.86 -2.51 0.9 -2.04 0.95 -1.57 0.99 -1.11 1.02 -1.02 1.02 -0.64 1.04 -0.17 1.05 0.29 1.04 0.76 1.03 0.9 1.02 1.23 1.01 1.69 0.97 2.16 0.92 2.63 0.87 2.7 0.86 3.09 0.79 3.56 0.71 3.68 0.69 4.03 0.61 4.42 0.52 4.49 0.5 4.96 0.37 5.02 0.35 5.43 0.22 5.53 0.19 5.89 0.05 5.96 0.02 6.34 -0.15 6.36 -0.16 6.66 -0.31 6.83 -0.41 6.95 -0.48 7.19 -0.65 7.29 -0.73 7.39 -0.82 7.56 -0.98 7.7 -1.15 7.76 -1.24 7.81 -1.32 7.88 -1.49 7.93 -1.65 7.94 -1.82" class="primitive"/>
          </g>
        </g>
      </g>
    </g>
  </g>
  <g class="guide ylabels" font-size="2.82" font-family="'PT Sans Caption','Helvetica Neue','Helvetica',sans-serif" fill="#6C606B" id="img-4b8d6fae-61">
    <g transform="translate(13.48,38.72)" id="img-4b8d6fae-62">
      <g class="primitive">
        <text text-anchor="end" dy="0.35em">0</text>
      </g>
    </g>
    <g transform="translate(13.48,30.79)" id="img-4b8d6fae-63">
      <g class="primitive">
        <text text-anchor="end" dy="0.35em">2</text>
      </g>
    </g>
    <g transform="translate(13.48,22.86)" id="img-4b8d6fae-64">
      <g class="primitive">
        <text text-anchor="end" dy="0.35em">4</text>
      </g>
    </g>
    <g transform="translate(13.48,14.93)" id="img-4b8d6fae-65">
      <g class="primitive">
        <text text-anchor="end" dy="0.35em">6</text>
      </g>
    </g>
    <g transform="translate(13.48,7)" id="img-4b8d6fae-66">
      <g class="primitive">
        <text text-anchor="end" dy="0.35em">8</text>
      </g>
    </g>
  </g>
  <g font-size="3.88" font-family="'PT Sans','Helvetica Neue','Helvetica',sans-serif" fill="#564A55" stroke="#000000" stroke-opacity="0.000" id="img-4b8d6fae-67">
    <g transform="translate(8.81,22.86)" id="img-4b8d6fae-68">
      <g class="primitive">
        <text text-anchor="end" dy="0.35em">y</text>
      </g>
    </g>
  </g>
</g>
<defs>
  <clipPath id="img-4b8d6fae-9">
    <path d="M14.48,5 L 107.03 5 107.03 40.72 14.48 40.72" />
  </clipPath>
</defs>
</svg>
